<svg width="235" height="200" viewBox="0 0 500 500" fill="none" xmlns="http://www.w3.org/2000/svg">
<path d="M101.4 390.74C185.19 434.51 321.03 434.51 404.82 390.74C488.61 346.97 488.6 276 404.82 232.23C321.04 188.46 185.19 188.46 101.4 232.23C17.61 276 17.62 347 101.4 390.74Z" fill="#5FB0E5"/>
<path d="M424.63 314.79C412.04 320.79 391.63 320.79 379.02 314.79C366.41 308.79 366.42 299.05 379.02 293.05C391.62 287.05 412.02 287.05 424.63 293.05C437.24 299.05 437.23 308.78 424.63 314.79Z" fill="#5FB0E5"/>
<path d="M156.44 203.38C140.49 212.59 127.57 234.98 127.57 253.38C127.57 271.78 140.49 279.25 156.44 270.05C172.39 260.85 185.31 238.45 185.31 220.05C185.31 201.65 172.38 194.17 156.44 203.38ZM154 255.75C152.033 256.991 149.782 257.71 147.46 257.84C141.86 257.84 141.25 251.23 141.25 248.39C141.25 237.29 149.37 223.24 158.98 217.69C160.942 216.447 163.19 215.727 165.51 215.6C171.12 215.6 171.72 222.21 171.72 225.05C171.67 236.14 163.56 250.2 154 255.75Z" fill="#455A64"/>
<path d="M166.26 215.66C165.995 215.624 165.728 215.604 165.46 215.6C164.055 215.648 162.672 215.956 161.38 216.51C161.508 217.408 161.571 218.313 161.57 219.22C161.57 230.31 153.45 244.37 143.84 249.91C143.055 250.366 142.236 250.76 141.39 251.09C141.574 252.761 142.164 254.361 143.11 255.75C143.601 256.423 144.25 256.966 145 257.33C145.75 257.694 146.577 257.87 147.41 257.84C149.733 257.715 151.985 256.995 153.95 255.75C163.56 250.2 171.67 236.14 171.67 225.05C171.67 222.35 171.12 216.26 166.26 215.66Z" fill="#263238"/>
<path d="M176.81 201.34L162.49 193.07C157.24 190 150 190.42 142 195C126 204.21 113.13 226.6 113.13 245C113.13 254.1 116.29 260.51 121.41 263.57L121.55 263.67H121.63L135.75 271.82H135.82C133.363 270.289 131.393 268.09 130.14 265.48C129.042 263.234 128.309 260.827 127.97 258.35C127.709 256.669 127.576 254.971 127.57 253.27C127.57 234.86 140.49 212.47 156.44 203.27C157.915 202.424 159.453 201.692 161.04 201.08C163.356 200.137 165.806 199.566 168.3 199.39C171.259 199.157 174.221 199.797 176.82 201.23L176.81 201.34Z" fill="#37474F"/>
<path d="M153.6 131.69L140.13 123.91L119.84 135.62L72.75 302.85L86.23 310.63L106.24 299.07L153.6 131.69Z" fill="#37474F"/>
<path d="M106.24 299.07L86.23 310.63L133.39 143.36L153.6 131.69L106.24 299.07Z" fill="#455A64"/>
<path d="M86.23 310.63L133.39 143.36L119.84 135.62L72.75 302.85L86.23 310.63Z" fill="#263238"/>
<path d="M78 176.43C62.06 185.64 49.13 208.03 49.13 226.43C49.13 244.83 62.08 252.31 78 243.11C93.92 233.91 106.87 211.51 106.87 193.11C106.87 174.71 94 167.23 78 176.43ZM75.54 228.8C73.5735 230.042 71.3224 230.762 69 230.89C63.39 230.89 62.79 224.28 62.79 221.44C62.79 210.35 70.9 196.29 80.51 190.74C82.4752 189.495 84.7271 188.775 87.05 188.65C92.65 188.65 93.26 195.26 93.26 198.1C93.26 209.19 85.14 223.25 75.54 228.8Z" fill="#455A64"/>
<path d="M87.85 188.71C87.5847 188.674 87.3176 188.654 87.05 188.65C85.6411 188.698 84.2536 189.01 82.96 189.57C83.0874 190.464 83.1509 191.367 83.15 192.27C83.15 203.36 75.04 217.42 65.43 222.96C64.6502 223.413 63.838 223.807 63 224.14C63.1824 225.816 63.7767 227.42 64.73 228.81C65.2225 229.481 65.8719 230.022 66.6214 230.385C67.371 230.747 68.1979 230.921 69.03 230.89C71.3524 230.762 73.6035 230.042 75.57 228.8C85.17 223.25 93.29 209.19 93.29 198.1C93.26 195.4 92.7 189.31 87.85 188.71Z" fill="#263238"/>
<path d="M98.4 174.39L84.08 166.12C78.85 163.07 71.61 163.49 63.61 168.12C47.61 177.32 34.73 199.71 34.73 218.12C34.73 227.22 37.9 233.63 43.01 236.69L43.15 236.79H43.23L57.33 245H57.41C54.9503 243.474 52.9765 241.278 51.72 238.67C50.6234 236.42 49.8909 234.01 49.55 231.53C49.2889 229.849 49.1551 228.151 49.15 226.45C49.15 208.04 62.08 185.65 78.02 176.45C79.4975 175.608 81.035 174.876 82.62 174.26C84.9389 173.317 87.3926 172.746 89.89 172.57C92.8455 172.338 95.8042 172.978 98.4 174.41V174.39Z" fill="#37474F"/>
<path d="M303.45 362.64L312.9 380.49C320.423 379.298 327.675 376.783 334.32 373.06L311.47 367.93C309.14 369.26 306.38 362.13 303.45 362.64Z" fill="#5FB0E5"/>
<path opacity="0.2" d="M303.45 362.64L312.9 380.49C320.423 379.298 327.675 376.783 334.32 373.06L311.47 367.93C309.14 369.26 306.38 362.13 303.45 362.64Z" fill="black"/>
<path d="M284.08 352.09C288.65 349.45 294.91 348.42 300.83 348.96L305.88 319.96L300.83 310.96L274.77 314.38L246.77 355.38L247.64 356.63L278.5 358.87C279 356.39 280.8 354 284.08 352.09Z" fill="#5FB0E5"/>
<path opacity="0.7" d="M284.08 352.09C288.65 349.45 294.91 348.42 300.83 348.96L305.88 319.96L300.83 310.96L274.77 314.38L246.77 355.38L247.64 356.63L278.5 358.87C279 356.39 280.8 354 284.08 352.09Z" fill="black"/>
<path d="M305.88 300.25V295.13L300.83 313.51L300.84 318.63L305.88 300.25Z" fill="#5FB0E5"/>
<path opacity="0.7" d="M305.88 300.25V295.13L300.83 313.51L300.84 318.63L305.88 300.25Z" fill="black"/>
<path d="M284.08 316.64C288.65 314.01 294.91 312.97 300.83 313.51L305.88 295.13C277.7 292.56 251.24 303.65 246.78 319.92C246.65 320.38 246.51 321.01 246.43 321.47L278.51 323.42C279 320.94 280.8 318.54 284.08 316.64Z" fill="#5FB0E5"/>
<path opacity="0.6" d="M284.08 316.64C288.65 314.01 294.91 312.97 300.83 313.51L305.88 295.13C277.7 292.56 251.24 303.65 246.78 319.92C246.65 320.38 246.51 321.01 246.43 321.47L278.51 323.42C279 320.94 280.8 318.54 284.08 316.64Z" fill="black"/>
<path d="M278.51 344.33V323.42L246.43 321.47V342.38L278.51 344.33Z" fill="#5FB0E5"/>
<path opacity="0.8" d="M278.51 344.33V323.42L246.43 321.47V342.38L278.51 344.33Z" fill="black"/>
<path d="M311.5 321.76C315.38 324.01 317.26 326.96 317.15 329.9L349.44 330.23C349.9 315.18 331.63 302.61 305.88 300.23L300.83 318.61C304.569 318.895 308.206 319.968 311.5 321.76V321.76Z" fill="#5FB0E5"/>
<path opacity="0.8" d="M311.5 321.76C315.38 324.01 317.26 326.96 317.15 329.9L349.44 330.23C349.9 315.18 331.63 302.61 305.88 300.23L300.83 318.61C304.569 318.895 308.206 319.968 311.5 321.76V321.76Z" fill="white"/>
<path d="M317.15 329.9V352.17L349.44 352.5V330.23L317.15 329.9Z" fill="#5FB0E5"/>
<path opacity="0.6" d="M317.15 329.9V352.17L349.44 352.5V330.23L317.15 329.9Z" fill="white"/>
<path d="M317.16 329.9V352C317.16 349.14 315.28 346.27 311.5 344.08C308.5 342.34 304.74 349.37 300.84 349.01V318.63C309.66 319.38 317.32 323.83 317.16 329.9Z" fill="#5FB0E5"/>
<path opacity="0.6" d="M317.16 329.9V352C317.16 349.14 315.28 346.27 311.5 344.08C308.5 342.34 304.74 349.37 300.84 349.01V318.63C309.66 319.38 317.32 323.83 317.16 329.9Z" fill="white"/>
<path d="M317.17 339.82H278.41V365.88H317.17V339.82Z" fill="#5FB0E5"/>
<path d="M284.08 347.87C276.51 343.5 276.51 336.41 284.08 332.04C291.65 327.67 303.93 327.67 311.5 332.04C319.07 336.41 319.06 343.5 311.5 347.87C303.94 352.24 291.65 352.24 284.08 347.87Z" fill="#5FB0E5"/>
<path d="M317.15 352.17C317.05 354.96 315.15 365.79 311.5 367.91L334.35 373.04C344.35 367.28 349.23 360.63 349.47 352.48L317.15 352.17Z" fill="#37474F"/>
<path d="M349.44 335.11V352.5L334.32 373.06V355.68L349.44 335.11Z" fill="#37474F"/>
<path d="M317.15 334.78C317.05 337.57 315.15 340.34 311.5 342.47L334.35 355.66C344.35 349.9 349.23 343.25 349.47 335.1L317.15 334.78Z" fill="#455A64"/>
<path d="M334.32 355.68V373.06L311.47 359.87L311.5 342.47L334.32 355.68Z" fill="#263238"/>
<path d="M334.32 361.17L312.9 368.6V380.49L334.32 373.06V361.17Z" fill="#5FB0E5"/>
<path opacity="0.2" d="M334.32 361.17L312.9 368.6V380.49L334.32 373.06V361.17Z" fill="black"/>
<path d="M303.45 350.75L312.9 368.6C320.423 367.408 327.675 364.893 334.32 361.17L311.47 348C308.974 349.369 306.261 350.299 303.45 350.75V350.75Z" fill="#5FB0E5"/>
<path d="M303.44 350.75V356.17L312.9 380.49V368.6L303.44 350.75Z" fill="#5FB0E5"/>
<path opacity="0.4" d="M303.44 350.75V356.17L312.9 380.49V368.6L303.44 350.75Z" fill="black"/>
<path d="M288.65 366C284.37 363.52 277.94 362.13 278.51 358.9L246.14 343.37C246.14 343.37 246.14 351.07 246.14 352.14C246.21 367.14 265.91 380.07 292.4 381.67C299.254 382.142 306.14 381.759 312.9 380.53V371.82C306.27 372.94 293.89 369 288.65 366Z" fill="#5FB0E5"/>
<path opacity="0.5" d="M288.65 366C284.37 363.52 277.94 362.13 278.51 358.9L246.14 343.37C246.14 343.37 246.14 351.07 246.14 352.14C246.21 367.14 265.91 380.07 292.4 381.67C299.254 382.142 306.14 381.759 312.9 380.53V371.82C306.27 372.94 293.89 369 288.65 366Z" fill="black"/>
<path d="M284.08 351.14C279.8 348.67 277.94 345.32 278.51 342.09L246.43 340.14C243.43 356.52 264.03 371.2 292.43 372.92C299.284 373.387 306.17 373.004 312.93 371.78L303.48 353.93C296.82 355.09 289.32 354.17 284.08 351.14Z" fill="#5FB0E5"/>
<path opacity="0.3" d="M284.08 351.14C279.8 348.67 277.94 345.32 278.51 342.09L246.43 340.14C243.43 356.52 264.03 371.2 292.43 372.92C299.284 373.387 306.17 373.004 312.93 371.78L303.48 353.93C296.82 355.09 289.32 354.17 284.08 351.14Z" fill="black"/>
<path d="M167 306C167.835 299.801 167.468 293.5 165.92 287.44C164.26 280.83 160.92 276.23 156.97 273.81C153.02 271.39 145.83 273.93 151.57 281.66C157.31 289.39 163.14 299.23 163.76 306.66L167 306Z" fill="#37474F"/>
<path d="M165.89 306.72C165.824 306.719 165.76 306.704 165.699 306.678C165.639 306.652 165.585 306.614 165.539 306.567C165.494 306.519 165.458 306.463 165.434 306.402C165.41 306.341 165.399 306.276 165.4 306.21C165.68 292.54 159.27 278.79 153.4 275.63C153.282 275.568 153.194 275.461 153.154 275.334C153.115 275.206 153.128 275.068 153.19 274.95C153.252 274.832 153.359 274.744 153.486 274.704C153.614 274.665 153.752 274.678 153.87 274.74C160.04 278.04 166.73 292.21 166.44 306.23C166.44 306.3 166.426 306.369 166.398 306.433C166.37 306.496 166.328 306.553 166.276 306.6C166.224 306.646 166.162 306.681 166.096 306.701C166.029 306.722 165.959 306.729 165.89 306.72Z" fill="white"/>
<path d="M167.49 330.18C161.19 333.84 154.03 330.48 152.79 323.45C152.36 321 151.93 318.45 149.66 317.06C147.76 315.88 145.2 315.73 143.57 314.15C141.25 311.89 142.57 308.98 144.03 306.69C145.39 304.61 146.49 302.18 145.21 299.8C144.425 298.551 143.803 297.207 143.36 295.8C143.144 295.098 143.115 294.352 143.274 293.635C143.434 292.918 143.777 292.255 144.27 291.71C145.47 290.57 147.36 290.62 148.97 291.01C151.58 291.708 153.982 293.029 155.97 294.86C157.38 296.07 158.18 297.3 160.21 297.67C161.71 297.94 163.27 297.67 164.75 298.02C165.683 298.273 166.551 298.722 167.296 299.338C168.041 299.954 168.646 300.721 169.07 301.59C170.54 304.46 170.07 307.8 169.84 310.89C169.61 313.98 169.32 316.77 168.96 319.7C168.66 322.18 168.32 324.7 167.96 327.13C167.9 327.51 167.83 330 167.49 330.18Z" fill="#455A64"/>
<path d="M168.09 326.72C167.97 326.719 167.855 326.675 167.765 326.596C167.675 326.517 167.617 326.409 167.6 326.29C165.41 310.59 152.19 295.98 147.27 293.47C147.212 293.44 147.16 293.398 147.117 293.348C147.075 293.298 147.043 293.24 147.023 293.177C147.003 293.114 146.995 293.048 147.001 292.983C147.006 292.917 147.025 292.854 147.055 292.795C147.085 292.737 147.127 292.685 147.177 292.642C147.227 292.6 147.285 292.568 147.348 292.548C147.411 292.528 147.477 292.52 147.542 292.526C147.608 292.531 147.672 292.55 147.73 292.58C152.94 295.24 166.32 309.87 168.59 326.16C168.607 326.291 168.571 326.424 168.491 326.529C168.41 326.634 168.291 326.703 168.16 326.72H168.09Z" fill="white"/>
<path d="M148.55 309.72C148.417 309.747 148.28 309.719 148.167 309.644C148.055 309.569 147.976 309.453 147.95 309.32C147.923 309.187 147.951 309.05 148.026 308.937C148.101 308.825 148.217 308.747 148.35 308.72C152.316 307.183 156.586 306.594 160.82 307C160.885 307.005 160.949 307.023 161.007 307.053C161.066 307.083 161.117 307.125 161.159 307.175C161.201 307.225 161.232 307.284 161.252 307.346C161.271 307.409 161.277 307.475 161.27 307.54C161.264 307.606 161.245 307.67 161.213 307.728C161.182 307.786 161.14 307.838 161.089 307.88C161.038 307.922 160.979 307.953 160.915 307.972C160.852 307.991 160.786 307.997 160.72 307.99C156.641 307.638 152.536 308.227 148.72 309.71C148.664 309.72 148.607 309.724 148.55 309.72Z" fill="white"/>
<path d="M168.89 333.88C168.001 333.281 167.266 332.481 166.745 331.544C166.223 330.608 165.931 329.561 165.89 328.49V177.37C165.947 176.266 166.265 175.191 166.818 174.233C167.371 173.275 168.142 172.462 169.07 171.86L347.66 68.76C348.606 68.2595 349.655 67.9871 350.725 67.9645C351.794 67.942 352.854 68.1699 353.82 68.63C354.71 69.2213 355.446 70.0158 355.967 70.9478C356.489 71.8798 356.781 72.9226 356.82 73.99V225.16C356.763 226.264 356.445 227.339 355.892 228.297C355.339 229.255 354.568 230.068 353.64 230.67L175.05 333.77C174.104 334.27 173.053 334.54 171.983 334.559C170.913 334.578 169.854 334.346 168.89 333.88V333.88Z" fill="#5FB0E5"/>
<path d="M183.81 184L166.81 174.2C166.235 175.149 165.915 176.231 165.88 177.34V328.49C165.85 329.571 166.112 330.64 166.639 331.585C167.167 332.529 167.94 333.313 168.876 333.854C169.813 334.395 170.878 334.673 171.96 334.658C173.041 334.643 174.099 334.336 175.02 333.77L183.78 328.71L183.81 184Z" fill="#5FB0E5"/>
<path opacity="0.2" d="M183.81 184L166.81 174.2C166.235 175.149 165.915 176.231 165.88 177.34V328.49C165.85 329.571 166.112 330.64 166.639 331.585C167.167 332.529 167.94 333.313 168.876 333.854C169.813 334.395 170.878 334.673 171.96 334.658C173.041 334.643 174.099 334.336 175.02 333.77L183.78 328.71L183.81 184Z" fill="black"/>
<path d="M175.05 175.31L353.62 72.16C355.38 71.16 356.8 71.97 356.8 73.99V225.16C356.743 226.264 356.425 227.339 355.872 228.297C355.319 229.255 354.548 230.068 353.62 230.67L175.05 333.77C173.3 334.77 171.88 333.96 171.88 331.93V180.82C171.936 179.717 172.253 178.642 172.803 177.684C173.354 176.727 174.124 175.913 175.05 175.31Z" fill="#5FB0E5"/>
<g opacity="0.5">
<path d="M175.05 175.31L353.62 72.16C355.38 71.16 356.8 71.97 356.8 73.99V225.16C356.743 226.264 356.425 227.339 355.872 228.297C355.319 229.255 354.548 230.068 353.62 230.67L175.05 333.77C173.3 334.77 171.88 333.96 171.88 331.93V180.82C171.936 179.717 172.253 178.642 172.803 177.684C173.354 176.727 174.124 175.913 175.05 175.31Z" fill="white"/>
</g>
<path opacity="0.4" d="M189.77 297.71C189.952 286.81 190.717 275.928 192.06 265.11C193.45 253.36 196.3 233.53 207.64 226.99C218.98 220.45 223.23 232.27 224.86 238.1C226.99 245.65 238.07 240.87 239.62 228.41C241.17 215.95 242.16 176.3 255.44 168.63C268.72 160.96 273.02 179.42 274.53 184.57C277.53 194.69 286.23 191.9 289.08 185.19C291.93 178.48 299.68 176.85 302.61 186.28C305.54 195.71 307.36 206.54 316.86 200.98C325.19 196.1 321.36 187.21 329.49 182.98C331.86 181.76 336.58 182.44 337.64 189.4C338.609 196.759 339.033 204.179 338.91 211.6L189.77 297.71Z" fill="white"/>
<path d="M189.77 298.45C189.575 298.447 189.39 298.368 189.253 298.23C189.116 298.091 189.04 297.905 189.04 297.71C189.223 286.774 189.987 275.855 191.33 265C192.45 255.53 195.08 233.36 207.27 226.32C210.88 224.24 214.14 223.77 216.97 224.92C220.74 226.45 223.55 230.69 225.57 237.92C226.17 240.04 227.57 241.14 229.5 240.99C233.38 240.69 237.95 235.88 238.89 228.34C239.14 226.34 239.38 223.6 239.65 220.43C241.13 203.3 243.65 174.63 255.08 168.01C258.59 166.01 261.81 165.55 264.67 166.71C270.96 169.26 273.67 178.81 274.96 183.4C275.06 183.77 275.15 184.1 275.24 184.4C276.35 188.19 278.4 190.4 281.01 190.51C283.88 190.7 286.96 188.34 288.4 184.94C290 181.17 293.12 178.84 296.24 179C299.36 179.16 301.96 181.74 303.31 186.11C303.63 187.11 303.94 188.18 304.24 189.22C305.91 194.89 307.47 200.22 310.69 201.52C312.24 202.13 314.14 201.76 316.49 200.39C320.41 198.09 321.49 194.92 322.55 191.56C323.61 188.2 324.82 184.63 329.15 182.38C329.944 181.99 330.818 181.793 331.702 181.803C332.586 181.814 333.456 182.032 334.24 182.44C335.76 183.21 337.71 185.04 338.36 189.34C339.333 196.742 339.761 204.205 339.64 211.67C339.642 211.767 339.623 211.864 339.585 211.953C339.548 212.043 339.492 212.123 339.421 212.19C339.351 212.257 339.267 212.308 339.176 212.341C339.084 212.374 338.987 212.387 338.89 212.38C338.695 212.375 338.511 212.293 338.376 212.153C338.241 212.012 338.167 211.825 338.17 211.63C338.298 204.252 337.876 196.875 336.91 189.56C336.35 185.87 334.79 184.36 333.58 183.75C333.003 183.448 332.363 183.285 331.712 183.275C331.061 183.264 330.416 183.406 329.83 183.69C326.03 185.69 325.02 188.75 323.95 192.02C322.81 195.49 321.63 199.08 317.23 201.66C314.46 203.27 312.15 203.66 310.15 202.88C306.27 201.34 304.6 195.65 302.83 189.63C302.53 188.63 302.23 187.56 301.91 186.54C300.75 182.8 298.65 180.59 296.17 180.46C293.69 180.33 291.09 182.37 289.75 185.52C288.05 189.52 284.43 192.18 280.92 191.98C279.02 191.87 275.58 190.79 273.83 184.82C273.74 184.53 273.65 184.19 273.54 183.82C272.31 179.46 269.74 170.37 264.11 168.09C261.7 167.09 258.91 167.52 255.81 169.3C245.01 175.54 242.48 204.84 241.12 220.58C240.84 223.76 240.6 226.51 240.35 228.58C239.35 236.87 234.08 242.17 229.61 242.51C226.98 242.71 224.94 241.16 224.16 238.37C222.27 231.66 219.74 227.74 216.41 226.37C214.03 225.37 211.2 225.84 208 227.68C196.45 234.35 193.88 256.01 192.79 265.26C191.455 276.049 190.694 286.901 190.51 297.77C190.495 297.956 190.41 298.129 190.273 298.255C190.136 298.381 189.956 298.451 189.77 298.45V298.45Z" fill="#F5F5F5"/>
<path d="M210.91 226.85C210.785 226.85 210.666 226.8 210.578 226.712C210.489 226.624 210.44 226.505 210.44 226.38V225.46C210.43 225.393 210.435 225.325 210.454 225.26C210.473 225.195 210.505 225.135 210.549 225.084C210.593 225.033 210.648 224.992 210.709 224.964C210.771 224.936 210.837 224.922 210.905 224.922C210.972 224.922 211.039 224.936 211.101 224.964C211.162 224.992 211.217 225.033 211.261 225.084C211.305 225.135 211.337 225.195 211.356 225.26C211.375 225.325 211.38 225.393 211.37 225.46V226.38C211.37 226.503 211.322 226.621 211.236 226.709C211.15 226.797 211.033 226.847 210.91 226.85V226.85Z" fill="#F5F5F5"/>
<path d="M210.91 282.34C210.848 282.34 210.787 282.328 210.73 282.304C210.673 282.281 210.621 282.246 210.578 282.202C210.534 282.159 210.499 282.107 210.476 282.05C210.452 281.993 210.44 281.932 210.44 281.87V280C210.456 279.888 210.512 279.786 210.598 279.713C210.683 279.639 210.792 279.598 210.905 279.598C211.018 279.598 211.127 279.639 211.212 279.713C211.298 279.786 211.354 279.888 211.37 280V281.85C211.373 281.913 211.363 281.975 211.341 282.034C211.319 282.092 211.286 282.146 211.243 282.192C211.2 282.237 211.149 282.274 211.091 282.299C211.034 282.325 210.973 282.339 210.91 282.34V282.34ZM210.91 278.64C210.785 278.64 210.666 278.59 210.578 278.502C210.489 278.414 210.44 278.295 210.44 278.17V276.32C210.456 276.208 210.512 276.106 210.598 276.033C210.683 275.959 210.792 275.918 210.905 275.918C211.018 275.918 211.127 275.959 211.212 276.033C211.298 276.106 211.354 276.208 211.37 276.32V278.17C211.37 278.293 211.322 278.411 211.236 278.499C211.15 278.587 211.033 278.637 210.91 278.64V278.64ZM210.91 274.94C210.848 274.94 210.787 274.928 210.73 274.904C210.673 274.881 210.621 274.846 210.578 274.802C210.534 274.759 210.499 274.707 210.476 274.65C210.452 274.593 210.44 274.532 210.44 274.47V272.63C210.43 272.563 210.435 272.495 210.454 272.43C210.473 272.365 210.505 272.305 210.549 272.254C210.593 272.203 210.648 272.162 210.709 272.134C210.771 272.106 210.837 272.092 210.905 272.092C210.972 272.092 211.039 272.106 211.101 272.134C211.162 272.162 211.217 272.203 211.261 272.254C211.305 272.305 211.337 272.365 211.356 272.43C211.375 272.495 211.38 272.563 211.37 272.63V274.47C211.37 274.593 211.322 274.711 211.236 274.799C211.15 274.887 211.033 274.937 210.91 274.94V274.94ZM210.91 271.24C210.787 271.24 210.669 271.192 210.581 271.106C210.493 271.02 210.443 270.903 210.44 270.78V268.93C210.43 268.863 210.435 268.795 210.454 268.73C210.473 268.665 210.505 268.605 210.549 268.554C210.593 268.503 210.648 268.462 210.709 268.434C210.771 268.406 210.837 268.392 210.905 268.392C210.972 268.392 211.039 268.406 211.101 268.434C211.162 268.462 211.217 268.503 211.261 268.554C211.305 268.605 211.337 268.665 211.356 268.73C211.375 268.795 211.38 268.863 211.37 268.93V270.78C211.367 270.901 211.318 271.017 211.232 271.102C211.147 271.188 211.031 271.237 210.91 271.24V271.24ZM210.91 267.54C210.787 267.54 210.669 267.492 210.581 267.406C210.493 267.32 210.443 267.203 210.44 267.08V265.23C210.43 265.163 210.435 265.095 210.454 265.03C210.473 264.965 210.505 264.905 210.549 264.854C210.593 264.803 210.648 264.762 210.709 264.734C210.771 264.706 210.837 264.692 210.905 264.692C210.972 264.692 211.039 264.706 211.101 264.734C211.162 264.762 211.217 264.803 211.261 264.854C211.305 264.905 211.337 264.965 211.356 265.03C211.375 265.095 211.38 265.163 211.37 265.23V267.08C211.367 267.201 211.318 267.317 211.232 267.402C211.147 267.488 211.031 267.537 210.91 267.54V267.54ZM210.91 263.84C210.787 263.84 210.669 263.792 210.581 263.706C210.493 263.62 210.443 263.503 210.44 263.38V261.53C210.43 261.463 210.435 261.395 210.454 261.33C210.473 261.265 210.505 261.206 210.549 261.154C210.593 261.103 210.648 261.062 210.709 261.034C210.771 261.006 210.837 260.992 210.905 260.992C210.972 260.992 211.039 261.006 211.101 261.034C211.162 261.062 211.217 261.103 211.261 261.154C211.305 261.206 211.337 261.265 211.356 261.33C211.375 261.395 211.38 261.463 211.37 261.53V263.38C211.367 263.501 211.318 263.617 211.232 263.702C211.147 263.788 211.031 263.837 210.91 263.84V263.84ZM210.91 260.14C210.787 260.14 210.669 260.092 210.581 260.006C210.493 259.92 210.443 259.803 210.44 259.68V257.83C210.43 257.763 210.435 257.695 210.454 257.63C210.473 257.565 210.505 257.505 210.549 257.454C210.593 257.403 210.648 257.362 210.709 257.334C210.771 257.306 210.837 257.292 210.905 257.292C210.972 257.292 211.039 257.306 211.101 257.334C211.162 257.362 211.217 257.403 211.261 257.454C211.305 257.505 211.337 257.565 211.356 257.63C211.375 257.695 211.38 257.763 211.37 257.83V259.68C211.367 259.801 211.318 259.917 211.232 260.002C211.147 260.088 211.031 260.137 210.91 260.14V260.14ZM210.91 256.44C210.849 256.441 210.788 256.43 210.731 256.408C210.674 256.385 210.622 256.352 210.578 256.309C210.534 256.266 210.5 256.215 210.476 256.158C210.452 256.102 210.44 256.041 210.44 255.98V254.13C210.43 254.063 210.435 253.995 210.454 253.93C210.473 253.865 210.505 253.805 210.549 253.754C210.593 253.703 210.648 253.662 210.709 253.634C210.771 253.606 210.837 253.592 210.905 253.592C210.972 253.592 211.039 253.606 211.101 253.634C211.162 253.662 211.217 253.703 211.261 253.754C211.305 253.805 211.337 253.865 211.356 253.93C211.375 253.995 211.38 254.063 211.37 254.13V256C211.365 256.119 211.314 256.23 211.228 256.312C211.143 256.394 211.029 256.44 210.91 256.44V256.44ZM210.91 252.74C210.849 252.741 210.788 252.73 210.731 252.708C210.674 252.685 210.622 252.652 210.578 252.609C210.534 252.566 210.5 252.515 210.476 252.458C210.452 252.402 210.44 252.341 210.44 252.28V250.43C210.43 250.363 210.435 250.295 210.454 250.23C210.473 250.165 210.505 250.105 210.549 250.054C210.593 250.003 210.648 249.962 210.709 249.934C210.771 249.906 210.837 249.892 210.905 249.892C210.972 249.892 211.039 249.906 211.101 249.934C211.162 249.962 211.217 250.003 211.261 250.054C211.305 250.105 211.337 250.165 211.356 250.23C211.375 250.295 211.38 250.363 211.37 250.43V252.28C211.37 252.34 211.358 252.4 211.335 252.456C211.312 252.512 211.278 252.563 211.235 252.605C211.192 252.648 211.142 252.682 211.086 252.705C211.03 252.728 210.97 252.74 210.91 252.74V252.74ZM210.91 249.04C210.849 249.041 210.788 249.03 210.731 249.008C210.674 248.985 210.622 248.952 210.578 248.909C210.534 248.866 210.5 248.815 210.476 248.758C210.452 248.702 210.44 248.641 210.44 248.58V246.73C210.456 246.618 210.512 246.516 210.598 246.443C210.683 246.369 210.792 246.328 210.905 246.328C211.018 246.328 211.127 246.369 211.212 246.443C211.298 246.516 211.354 246.618 211.37 246.73V248.58C211.36 248.695 211.307 248.802 211.222 248.88C211.137 248.957 211.025 249 210.91 249V249.04ZM210.91 245.35C210.785 245.35 210.666 245.3 210.578 245.212C210.489 245.124 210.44 245.005 210.44 244.88V243C210.456 242.888 210.512 242.786 210.598 242.713C210.683 242.639 210.792 242.598 210.905 242.598C211.018 242.598 211.127 242.639 211.212 242.713C211.298 242.786 211.354 242.888 211.37 243V244.85C211.374 244.913 211.365 244.977 211.344 245.037C211.323 245.097 211.29 245.152 211.247 245.198C211.204 245.245 211.152 245.283 211.094 245.309C211.036 245.335 210.973 245.349 210.91 245.35V245.35ZM210.91 241.65C210.785 241.65 210.666 241.6 210.578 241.512C210.489 241.424 210.44 241.305 210.44 241.18V239.33C210.456 239.218 210.512 239.116 210.598 239.043C210.683 238.969 210.792 238.928 210.905 238.928C211.018 238.928 211.127 238.969 211.212 239.043C211.298 239.116 211.354 239.218 211.37 239.33V241.18C211.37 241.303 211.322 241.421 211.236 241.509C211.15 241.597 211.033 241.647 210.91 241.65V241.65ZM210.91 237.95C210.785 237.95 210.666 237.9 210.578 237.812C210.489 237.724 210.44 237.605 210.44 237.48V235.63C210.456 235.518 210.512 235.416 210.598 235.343C210.683 235.269 210.792 235.228 210.905 235.228C211.018 235.228 211.127 235.269 211.212 235.343C211.298 235.416 211.354 235.518 211.37 235.63V237.48C211.377 237.545 211.37 237.611 211.35 237.673C211.331 237.735 211.298 237.793 211.255 237.841C211.211 237.89 211.158 237.93 211.099 237.957C211.04 237.984 210.975 237.999 210.91 238V237.95ZM210.91 234.25C210.785 234.25 210.666 234.2 210.578 234.112C210.489 234.024 210.44 233.905 210.44 233.78V231.93C210.456 231.818 210.512 231.716 210.598 231.643C210.683 231.569 210.792 231.528 210.905 231.528C211.018 231.528 211.127 231.569 211.212 231.643C211.298 231.716 211.354 231.818 211.37 231.93V233.78C211.37 233.903 211.322 234.021 211.236 234.109C211.15 234.197 211.033 234.247 210.91 234.25V234.25ZM210.91 230.55C210.785 230.55 210.666 230.5 210.578 230.412C210.489 230.324 210.44 230.205 210.44 230.08V228.23C210.456 228.118 210.512 228.016 210.598 227.943C210.683 227.869 210.792 227.828 210.905 227.828C211.018 227.828 211.127 227.869 211.212 227.943C211.298 228.016 211.354 228.118 211.37 228.23V230.08C211.37 230.203 211.322 230.321 211.236 230.409C211.15 230.497 211.033 230.547 210.91 230.55V230.55Z" fill="#F5F5F5"/>
<path d="M210.91 285.12C210.848 285.12 210.787 285.108 210.73 285.084C210.673 285.061 210.621 285.026 210.578 284.982C210.534 284.939 210.499 284.887 210.476 284.83C210.452 284.773 210.44 284.712 210.44 284.65V283.72C210.456 283.608 210.512 283.506 210.598 283.433C210.683 283.359 210.792 283.318 210.905 283.318C211.018 283.318 211.127 283.359 211.212 283.433C211.298 283.506 211.354 283.608 211.37 283.72V284.65C211.37 284.773 211.322 284.891 211.236 284.979C211.15 285.067 211.033 285.117 210.91 285.12V285.12Z" fill="#F5F5F5"/>
<path d="M258.89 168.77C258.769 168.767 258.653 168.718 258.567 168.632C258.482 168.547 258.432 168.431 258.43 168.31V167.38C258.42 167.313 258.425 167.245 258.444 167.18C258.463 167.116 258.495 167.056 258.539 167.004C258.583 166.953 258.638 166.912 258.699 166.884C258.761 166.856 258.827 166.842 258.895 166.842C258.962 166.842 259.029 166.856 259.091 166.884C259.152 166.912 259.207 166.953 259.251 167.004C259.295 167.056 259.327 167.116 259.346 167.18C259.365 167.245 259.37 167.313 259.36 167.38V168.31C259.357 168.433 259.307 168.55 259.219 168.636C259.131 168.722 259.013 168.77 258.89 168.77V168.77Z" fill="#F5F5F5"/>
<path d="M258.89 255.51C258.767 255.507 258.65 255.457 258.564 255.369C258.478 255.281 258.43 255.163 258.43 255.04V253.16C258.42 253.093 258.425 253.025 258.444 252.96C258.463 252.896 258.495 252.836 258.539 252.784C258.583 252.733 258.638 252.692 258.699 252.664C258.761 252.636 258.827 252.622 258.895 252.622C258.962 252.622 259.029 252.636 259.091 252.664C259.152 252.692 259.207 252.733 259.251 252.784C259.295 252.836 259.327 252.896 259.346 252.96C259.365 253.025 259.37 253.093 259.36 253.16V255C259.365 255.065 259.357 255.13 259.336 255.192C259.315 255.254 259.281 255.311 259.237 255.359C259.193 255.407 259.139 255.445 259.08 255.471C259.02 255.497 258.955 255.51 258.89 255.51V255.51ZM258.89 251.74C258.767 251.737 258.65 251.687 258.564 251.599C258.478 251.511 258.43 251.393 258.43 251.27V249.38C258.446 249.268 258.502 249.166 258.588 249.093C258.673 249.019 258.782 248.978 258.895 248.978C259.008 248.978 259.117 249.019 259.202 249.093C259.288 249.166 259.344 249.268 259.36 249.38V251.27C259.36 251.332 259.348 251.393 259.324 251.45C259.301 251.507 259.266 251.559 259.222 251.602C259.179 251.646 259.127 251.681 259.07 251.704C259.013 251.728 258.952 251.74 258.89 251.74V251.74ZM258.89 247.96C258.768 247.96 258.651 247.912 258.565 247.825C258.478 247.739 258.43 247.622 258.43 247.5V245.61C258.446 245.498 258.502 245.396 258.588 245.323C258.673 245.249 258.782 245.208 258.895 245.208C259.008 245.208 259.117 245.249 259.202 245.323C259.288 245.396 259.344 245.498 259.36 245.61V247.5C259.366 247.565 259.358 247.63 259.336 247.691C259.315 247.752 259.281 247.808 259.237 247.855C259.192 247.902 259.139 247.94 259.079 247.965C259.019 247.99 258.955 248.002 258.89 248V247.96ZM258.89 244.19C258.769 244.187 258.653 244.138 258.567 244.052C258.482 243.967 258.432 243.851 258.43 243.73V241.84C258.446 241.728 258.502 241.626 258.588 241.553C258.673 241.479 258.782 241.438 258.895 241.438C259.008 241.438 259.117 241.479 259.202 241.553C259.288 241.626 259.344 241.728 259.36 241.84V243.73C259.357 243.853 259.307 243.97 259.219 244.056C259.131 244.142 259.013 244.19 258.89 244.19V244.19ZM258.89 240.42C258.769 240.417 258.653 240.368 258.567 240.282C258.482 240.197 258.432 240.081 258.43 239.96V238.07C258.446 237.958 258.502 237.856 258.588 237.783C258.673 237.709 258.782 237.668 258.895 237.668C259.008 237.668 259.117 237.709 259.202 237.783C259.288 237.856 259.344 237.958 259.36 238.07V240C259.348 240.116 259.293 240.223 259.206 240.3C259.119 240.378 259.006 240.421 258.89 240.42V240.42ZM258.89 236.65C258.769 236.647 258.653 236.598 258.567 236.512C258.482 236.427 258.432 236.311 258.43 236.19V234.3C258.446 234.188 258.502 234.086 258.588 234.013C258.673 233.939 258.782 233.898 258.895 233.898C259.008 233.898 259.117 233.939 259.202 234.013C259.288 234.086 259.344 234.188 259.36 234.3V236.19C259.357 236.313 259.307 236.43 259.219 236.516C259.131 236.602 259.013 236.65 258.89 236.65V236.65ZM258.89 232.88C258.767 232.877 258.65 232.827 258.564 232.739C258.478 232.651 258.43 232.533 258.43 232.41V230.53C258.42 230.463 258.425 230.395 258.444 230.33C258.463 230.265 258.495 230.206 258.539 230.154C258.583 230.103 258.638 230.062 258.699 230.034C258.761 230.006 258.827 229.992 258.895 229.992C258.962 229.992 259.029 230.006 259.091 230.034C259.152 230.062 259.207 230.103 259.251 230.154C259.295 230.206 259.327 230.265 259.346 230.33C259.365 230.395 259.37 230.463 259.36 230.53V232.41C259.36 232.472 259.348 232.533 259.324 232.59C259.301 232.647 259.266 232.699 259.222 232.742C259.179 232.786 259.127 232.821 259.07 232.844C259.013 232.868 258.952 232.88 258.89 232.88V232.88ZM258.89 229.11C258.767 229.107 258.65 229.057 258.564 228.969C258.478 228.881 258.43 228.763 258.43 228.64V226.76C258.42 226.693 258.425 226.625 258.444 226.56C258.463 226.495 258.495 226.436 258.539 226.384C258.583 226.333 258.638 226.292 258.699 226.264C258.761 226.236 258.827 226.222 258.895 226.222C258.962 226.222 259.029 226.236 259.091 226.264C259.152 226.292 259.207 226.333 259.251 226.384C259.295 226.436 259.327 226.495 259.346 226.56C259.365 226.625 259.37 226.693 259.36 226.76V228.64C259.36 228.702 259.348 228.763 259.324 228.82C259.301 228.877 259.266 228.929 259.222 228.972C259.179 229.016 259.127 229.051 259.07 229.074C259.013 229.098 258.952 229.11 258.89 229.11V229.11ZM258.89 225.34C258.767 225.337 258.65 225.287 258.564 225.199C258.478 225.111 258.43 224.993 258.43 224.87V223C258.42 222.933 258.425 222.865 258.444 222.8C258.463 222.735 258.495 222.676 258.539 222.624C258.583 222.573 258.638 222.532 258.699 222.504C258.761 222.476 258.827 222.462 258.895 222.462C258.962 222.462 259.029 222.476 259.091 222.504C259.152 222.532 259.207 222.573 259.251 222.624C259.295 222.676 259.327 222.735 259.346 222.8C259.365 222.865 259.37 222.933 259.36 223V224.88C259.357 225.003 259.307 225.12 259.219 225.206C259.131 225.292 259.013 225.34 258.89 225.34V225.34ZM258.89 221.57C258.767 221.567 258.65 221.517 258.564 221.429C258.478 221.341 258.43 221.223 258.43 221.1V219.22C258.42 219.153 258.425 219.085 258.444 219.02C258.463 218.955 258.495 218.896 258.539 218.844C258.583 218.793 258.638 218.752 258.699 218.724C258.761 218.696 258.827 218.682 258.895 218.682C258.962 218.682 259.029 218.696 259.091 218.724C259.152 218.752 259.207 218.793 259.251 218.844C259.295 218.896 259.327 218.955 259.346 219.02C259.365 219.085 259.37 219.153 259.36 219.22V221.1C259.36 221.162 259.348 221.223 259.324 221.28C259.301 221.337 259.266 221.389 259.222 221.432C259.179 221.476 259.127 221.511 259.07 221.534C259.013 221.558 258.952 221.57 258.89 221.57V221.57ZM258.89 217.8C258.767 217.797 258.65 217.747 258.564 217.659C258.478 217.571 258.43 217.453 258.43 217.33V215.45C258.42 215.383 258.425 215.315 258.444 215.25C258.463 215.185 258.495 215.126 258.539 215.074C258.583 215.023 258.638 214.982 258.699 214.954C258.761 214.926 258.827 214.912 258.895 214.912C258.962 214.912 259.029 214.926 259.091 214.954C259.152 214.982 259.207 215.023 259.251 215.074C259.295 215.126 259.327 215.185 259.346 215.25C259.365 215.315 259.37 215.383 259.36 215.45V217.33C259.36 217.392 259.348 217.453 259.324 217.51C259.301 217.567 259.266 217.619 259.222 217.662C259.179 217.706 259.127 217.741 259.07 217.764C259.013 217.788 258.952 217.8 258.89 217.8V217.8ZM258.89 214.02C258.768 214.02 258.651 213.972 258.565 213.885C258.478 213.799 258.43 213.682 258.43 213.56V211.67C258.446 211.558 258.502 211.456 258.588 211.383C258.673 211.309 258.782 211.268 258.895 211.268C259.008 211.268 259.117 211.309 259.202 211.383C259.288 211.456 259.344 211.558 259.36 211.67V213.56C259.355 213.68 259.303 213.794 259.215 213.876C259.127 213.958 259.01 214.003 258.89 214V214.02ZM258.89 210.25C258.768 210.25 258.651 210.202 258.565 210.115C258.478 210.029 258.43 209.912 258.43 209.79V207.9C258.446 207.788 258.502 207.686 258.588 207.613C258.673 207.539 258.782 207.498 258.895 207.498C259.008 207.498 259.117 207.539 259.202 207.613C259.288 207.686 259.344 207.788 259.36 207.9V209.79C259.36 209.851 259.348 209.912 259.324 209.968C259.3 210.025 259.265 210.076 259.222 210.119C259.178 210.162 259.126 210.195 259.069 210.218C259.012 210.24 258.951 210.251 258.89 210.25V210.25ZM258.89 206.48C258.769 206.477 258.653 206.428 258.567 206.342C258.482 206.257 258.432 206.141 258.43 206.02V204.13C258.446 204.018 258.502 203.916 258.588 203.843C258.673 203.769 258.782 203.728 258.895 203.728C259.008 203.728 259.117 203.769 259.202 203.843C259.288 203.916 259.344 204.018 259.36 204.13V206C259.361 206.063 259.35 206.125 259.327 206.183C259.304 206.241 259.27 206.294 259.226 206.339C259.182 206.384 259.13 206.419 259.072 206.443C259.014 206.468 258.953 206.48 258.89 206.48V206.48ZM258.89 202.71C258.769 202.707 258.653 202.658 258.567 202.572C258.482 202.487 258.432 202.371 258.43 202.25V200.36C258.446 200.248 258.502 200.146 258.588 200.073C258.673 199.999 258.782 199.958 258.895 199.958C259.008 199.958 259.117 199.999 259.202 200.073C259.288 200.146 259.344 200.248 259.36 200.36V202.25C259.357 202.373 259.307 202.49 259.219 202.576C259.131 202.662 259.013 202.71 258.89 202.71V202.71ZM258.89 198.94C258.769 198.937 258.653 198.888 258.567 198.802C258.482 198.717 258.432 198.601 258.43 198.48V196.59C258.446 196.478 258.502 196.376 258.588 196.303C258.673 196.229 258.782 196.188 258.895 196.188C259.008 196.188 259.117 196.229 259.202 196.303C259.288 196.376 259.344 196.478 259.36 196.59V198.48C259.357 198.603 259.307 198.72 259.219 198.806C259.131 198.892 259.013 198.94 258.89 198.94V198.94ZM258.89 195.17C258.767 195.167 258.65 195.117 258.564 195.029C258.478 194.941 258.43 194.823 258.43 194.7V192.82C258.42 192.753 258.425 192.685 258.444 192.62C258.463 192.556 258.495 192.496 258.539 192.444C258.583 192.393 258.638 192.352 258.699 192.324C258.761 192.296 258.827 192.282 258.895 192.282C258.962 192.282 259.029 192.296 259.091 192.324C259.152 192.352 259.207 192.393 259.251 192.444C259.295 192.496 259.327 192.556 259.346 192.62C259.365 192.685 259.37 192.753 259.36 192.82V194.7C259.36 194.762 259.348 194.823 259.324 194.88C259.301 194.937 259.266 194.989 259.222 195.032C259.179 195.076 259.127 195.111 259.07 195.134C259.013 195.158 258.952 195.17 258.89 195.17V195.17ZM258.89 191.4C258.767 191.397 258.65 191.347 258.564 191.259C258.478 191.171 258.43 191.053 258.43 190.93V189.05C258.42 188.983 258.425 188.915 258.444 188.85C258.463 188.785 258.495 188.726 258.539 188.674C258.583 188.623 258.638 188.582 258.699 188.554C258.761 188.526 258.827 188.512 258.895 188.512C258.962 188.512 259.029 188.526 259.091 188.554C259.152 188.582 259.207 188.623 259.251 188.674C259.295 188.726 259.327 188.785 259.346 188.85C259.365 188.915 259.37 188.983 259.36 189.05V190.93C259.36 190.992 259.348 191.053 259.324 191.11C259.301 191.167 259.266 191.219 259.222 191.262C259.179 191.306 259.127 191.341 259.07 191.364C259.013 191.388 258.952 191.4 258.89 191.4V191.4ZM258.89 187.63C258.767 187.627 258.65 187.577 258.564 187.489C258.478 187.401 258.43 187.283 258.43 187.16V185.28C258.42 185.213 258.425 185.145 258.444 185.08C258.463 185.015 258.495 184.956 258.539 184.904C258.583 184.853 258.638 184.812 258.699 184.784C258.761 184.756 258.827 184.742 258.895 184.742C258.962 184.742 259.029 184.756 259.091 184.784C259.152 184.812 259.207 184.853 259.251 184.904C259.295 184.956 259.327 185.015 259.346 185.08C259.365 185.145 259.37 185.213 259.36 185.28V187.16C259.36 187.222 259.348 187.283 259.324 187.34C259.301 187.397 259.266 187.449 259.222 187.492C259.179 187.536 259.127 187.571 259.07 187.594C259.013 187.618 258.952 187.63 258.89 187.63V187.63ZM258.89 183.86C258.767 183.857 258.65 183.807 258.564 183.719C258.478 183.631 258.43 183.513 258.43 183.39V181.51C258.42 181.443 258.425 181.375 258.444 181.31C258.463 181.245 258.495 181.186 258.539 181.134C258.583 181.083 258.638 181.042 258.699 181.014C258.761 180.986 258.827 180.972 258.895 180.972C258.962 180.972 259.029 180.986 259.091 181.014C259.152 181.042 259.207 181.083 259.251 181.134C259.295 181.186 259.327 181.245 259.346 181.31C259.365 181.375 259.37 181.443 259.36 181.51V183.39C259.36 183.452 259.348 183.513 259.324 183.57C259.301 183.627 259.266 183.679 259.222 183.722C259.179 183.766 259.127 183.801 259.07 183.824C259.013 183.848 258.952 183.86 258.89 183.86V183.86ZM258.89 180.09C258.767 180.087 258.65 180.037 258.564 179.949C258.478 179.861 258.43 179.743 258.43 179.62V177.73C258.446 177.618 258.502 177.516 258.588 177.443C258.673 177.369 258.782 177.328 258.895 177.328C259.008 177.328 259.117 177.369 259.202 177.443C259.288 177.516 259.344 177.618 259.36 177.73V179.62C259.36 179.682 259.348 179.743 259.324 179.8C259.301 179.857 259.266 179.909 259.222 179.952C259.179 179.996 259.127 180.031 259.07 180.054C259.013 180.078 258.952 180.09 258.89 180.09V180.09ZM258.89 176.31C258.768 176.31 258.651 176.262 258.565 176.175C258.478 176.089 258.43 175.972 258.43 175.85V174C258.446 173.888 258.502 173.786 258.588 173.713C258.673 173.639 258.782 173.598 258.895 173.598C259.008 173.598 259.117 173.639 259.202 173.713C259.288 173.786 259.344 173.888 259.36 174V175.89C259.35 176.007 259.296 176.115 259.208 176.193C259.121 176.271 259.007 176.313 258.89 176.31V176.31ZM258.89 172.54C258.768 172.54 258.651 172.492 258.565 172.405C258.478 172.319 258.43 172.202 258.43 172.08V170.19C258.446 170.078 258.502 169.976 258.588 169.903C258.673 169.829 258.782 169.788 258.895 169.788C259.008 169.788 259.117 169.829 259.202 169.903C259.288 169.976 259.344 170.078 259.36 170.19V172.08C259.36 172.141 259.348 172.202 259.324 172.258C259.3 172.315 259.265 172.366 259.222 172.409C259.178 172.452 259.126 172.485 259.069 172.508C259.012 172.53 258.951 172.541 258.89 172.54V172.54Z" fill="#F5F5F5"/>
<path d="M258.89 258.32C258.769 258.317 258.653 258.268 258.567 258.182C258.482 258.097 258.432 257.981 258.43 257.86V256.93C258.42 256.863 258.425 256.795 258.444 256.73C258.463 256.666 258.495 256.606 258.539 256.554C258.583 256.503 258.638 256.462 258.699 256.434C258.761 256.406 258.827 256.392 258.895 256.392C258.962 256.392 259.029 256.406 259.091 256.434C259.152 256.462 259.207 256.503 259.251 256.554C259.295 256.606 259.327 256.666 259.346 256.73C259.365 256.795 259.37 256.863 259.36 256.93V257.86C259.357 257.983 259.307 258.1 259.219 258.186C259.131 258.272 259.013 258.32 258.89 258.32V258.32Z" fill="#F5F5F5"/>
<path d="M295.56 181.42C295.437 181.417 295.32 181.367 295.234 181.279C295.148 181.191 295.1 181.073 295.1 180.95V180C295.116 179.888 295.172 179.786 295.258 179.713C295.343 179.639 295.452 179.598 295.565 179.598C295.678 179.598 295.787 179.639 295.872 179.713C295.958 179.786 296.014 179.888 296.03 180V181C296.018 181.116 295.963 181.223 295.876 181.3C295.789 181.378 295.676 181.421 295.56 181.42Z" fill="#F5F5F5"/>
<path d="M295.56 234.48C295.439 234.477 295.323 234.428 295.238 234.342C295.152 234.257 295.103 234.141 295.1 234.02V232.12C295.116 232.008 295.172 231.906 295.258 231.833C295.343 231.759 295.452 231.718 295.565 231.718C295.678 231.718 295.787 231.759 295.872 231.833C295.958 231.906 296.014 232.008 296.03 232.12V234C296.031 234.063 296.02 234.125 295.997 234.183C295.974 234.241 295.94 234.294 295.896 234.339C295.852 234.384 295.8 234.419 295.742 234.443C295.684 234.468 295.623 234.48 295.56 234.48V234.48ZM295.56 230.69C295.439 230.687 295.323 230.638 295.238 230.552C295.152 230.467 295.103 230.351 295.1 230.23V228.33C295.116 228.218 295.172 228.116 295.258 228.043C295.343 227.969 295.452 227.928 295.565 227.928C295.678 227.928 295.787 227.969 295.872 228.043C295.958 228.116 296.014 228.218 296.03 228.33V230.23C296.027 230.353 295.977 230.47 295.889 230.556C295.801 230.642 295.683 230.69 295.56 230.69V230.69ZM295.56 226.9C295.439 226.897 295.323 226.848 295.238 226.762C295.152 226.677 295.103 226.561 295.1 226.44V224.54C295.116 224.428 295.172 224.326 295.258 224.253C295.343 224.179 295.452 224.138 295.565 224.138C295.678 224.138 295.787 224.179 295.872 224.253C295.958 224.326 296.014 224.428 296.03 224.54V226.44C296.027 226.563 295.977 226.68 295.889 226.766C295.801 226.852 295.683 226.9 295.56 226.9V226.9ZM295.56 223.11C295.439 223.107 295.323 223.058 295.238 222.972C295.152 222.887 295.103 222.771 295.1 222.65V220.75C295.116 220.638 295.172 220.536 295.258 220.463C295.343 220.389 295.452 220.348 295.565 220.348C295.678 220.348 295.787 220.389 295.872 220.463C295.958 220.536 296.014 220.638 296.03 220.75V222.65C296.027 222.773 295.977 222.89 295.889 222.976C295.801 223.062 295.683 223.11 295.56 223.11V223.11ZM295.56 219.32C295.439 219.317 295.323 219.268 295.238 219.182C295.152 219.097 295.103 218.981 295.1 218.86V217C295.116 216.888 295.172 216.786 295.258 216.713C295.343 216.639 295.452 216.598 295.565 216.598C295.678 216.598 295.787 216.639 295.872 216.713C295.958 216.786 296.014 216.888 296.03 217V218.9C296.018 219.016 295.963 219.123 295.876 219.2C295.789 219.278 295.676 219.321 295.56 219.32V219.32ZM295.56 215.53C295.439 215.527 295.323 215.478 295.238 215.392C295.152 215.307 295.103 215.191 295.1 215.07V213.17C295.116 213.058 295.172 212.956 295.258 212.883C295.343 212.809 295.452 212.768 295.565 212.768C295.678 212.768 295.787 212.809 295.872 212.883C295.958 212.956 296.014 213.058 296.03 213.17V215.07C296.027 215.193 295.977 215.31 295.889 215.396C295.801 215.482 295.683 215.53 295.56 215.53V215.53ZM295.56 211.74C295.439 211.737 295.323 211.688 295.238 211.602C295.152 211.517 295.103 211.401 295.1 211.28V209.38C295.116 209.268 295.172 209.166 295.258 209.093C295.343 209.019 295.452 208.978 295.565 208.978C295.678 208.978 295.787 209.019 295.872 209.093C295.958 209.166 296.014 209.268 296.03 209.38V211.28C296.027 211.403 295.977 211.52 295.889 211.606C295.801 211.692 295.683 211.74 295.56 211.74V211.74ZM295.56 207.95C295.439 207.947 295.323 207.898 295.238 207.812C295.152 207.727 295.103 207.611 295.1 207.49V205.59C295.116 205.478 295.172 205.376 295.258 205.303C295.343 205.229 295.452 205.188 295.565 205.188C295.678 205.188 295.787 205.229 295.872 205.303C295.958 205.376 296.014 205.478 296.03 205.59V207.49C296.036 207.555 296.027 207.62 296.006 207.682C295.985 207.744 295.951 207.801 295.907 207.849C295.863 207.896 295.809 207.935 295.75 207.961C295.69 207.987 295.625 208 295.56 208V207.95ZM295.56 204.16C295.439 204.157 295.323 204.108 295.238 204.022C295.152 203.937 295.103 203.821 295.1 203.7V201.8C295.116 201.688 295.172 201.586 295.258 201.513C295.343 201.439 295.452 201.398 295.565 201.398C295.678 201.398 295.787 201.439 295.872 201.513C295.958 201.586 296.014 201.688 296.03 201.8V203.7C296.027 203.823 295.977 203.94 295.889 204.026C295.801 204.112 295.683 204.16 295.56 204.16V204.16ZM295.56 200.37C295.439 200.367 295.323 200.318 295.238 200.232C295.152 200.147 295.103 200.031 295.1 199.91V198C295.116 197.888 295.172 197.786 295.258 197.713C295.343 197.639 295.452 197.598 295.565 197.598C295.678 197.598 295.787 197.639 295.872 197.713C295.958 197.786 296.014 197.888 296.03 198V199.9C296.03 199.962 296.018 200.023 295.994 200.08C295.971 200.137 295.936 200.189 295.892 200.232C295.849 200.276 295.797 200.311 295.74 200.334C295.683 200.358 295.622 200.37 295.56 200.37V200.37ZM295.56 196.58C295.439 196.577 295.323 196.528 295.238 196.442C295.152 196.357 295.103 196.241 295.1 196.12V194.22C295.116 194.108 295.172 194.006 295.258 193.933C295.343 193.859 295.452 193.818 295.565 193.818C295.678 193.818 295.787 193.859 295.872 193.933C295.958 194.006 296.014 194.108 296.03 194.22V196.12C296.027 196.243 295.977 196.36 295.889 196.446C295.801 196.532 295.683 196.58 295.56 196.58V196.58ZM295.56 192.79C295.437 192.787 295.32 192.737 295.234 192.649C295.148 192.561 295.1 192.443 295.1 192.32V190.43C295.09 190.363 295.095 190.295 295.114 190.23C295.133 190.165 295.165 190.106 295.209 190.054C295.253 190.003 295.308 189.962 295.369 189.934C295.431 189.906 295.497 189.892 295.565 189.892C295.632 189.892 295.699 189.906 295.761 189.934C295.822 189.962 295.877 190.003 295.921 190.054C295.965 190.106 295.997 190.165 296.016 190.23C296.035 190.295 296.04 190.363 296.03 190.43V192.32C296.03 192.445 295.98 192.564 295.892 192.652C295.804 192.741 295.685 192.79 295.56 192.79V192.79ZM295.56 189C295.437 188.997 295.32 188.947 295.234 188.859C295.148 188.771 295.1 188.653 295.1 188.53V186.64C295.09 186.573 295.095 186.505 295.114 186.44C295.133 186.375 295.165 186.316 295.209 186.264C295.253 186.213 295.308 186.172 295.369 186.144C295.431 186.116 295.497 186.102 295.565 186.102C295.632 186.102 295.699 186.116 295.761 186.144C295.822 186.172 295.877 186.213 295.921 186.264C295.965 186.316 295.997 186.375 296.016 186.44C296.035 186.505 296.04 186.573 296.03 186.64V188.53C296.03 188.655 295.98 188.774 295.892 188.862C295.804 188.95 295.685 189 295.56 189V189ZM295.56 185.21C295.437 185.207 295.32 185.157 295.234 185.069C295.148 184.981 295.1 184.863 295.1 184.74V182.85C295.09 182.783 295.095 182.715 295.114 182.65C295.133 182.586 295.165 182.526 295.209 182.474C295.253 182.423 295.308 182.382 295.369 182.354C295.431 182.326 295.497 182.312 295.565 182.312C295.632 182.312 295.699 182.326 295.761 182.354C295.822 182.382 295.877 182.423 295.921 182.474C295.965 182.526 295.997 182.586 296.016 182.65C296.035 182.715 296.04 182.783 296.03 182.85V184.74C296.03 184.865 295.98 184.984 295.892 185.072C295.804 185.16 295.685 185.21 295.56 185.21V185.21Z" fill="#F5F5F5"/>
<path d="M295.56 237.31C295.437 237.307 295.32 237.257 295.234 237.169C295.148 237.081 295.1 236.963 295.1 236.84V235.91C295.116 235.798 295.172 235.696 295.258 235.623C295.343 235.549 295.452 235.508 295.565 235.508C295.678 235.508 295.787 235.549 295.872 235.623C295.958 235.696 296.014 235.798 296.03 235.91V236.84C296.03 236.902 296.018 236.963 295.994 237.02C295.971 237.077 295.936 237.129 295.892 237.172C295.849 237.216 295.797 237.251 295.74 237.274C295.683 237.298 295.622 237.31 295.56 237.31V237.31Z" fill="#F5F5F5"/>
<path d="M331.69 183.9C331.565 183.9 331.446 183.851 331.358 183.762C331.269 183.674 331.22 183.555 331.22 183.43V182.5C331.236 182.388 331.292 182.286 331.378 182.213C331.463 182.139 331.572 182.098 331.685 182.098C331.798 182.098 331.907 182.139 331.992 182.213C332.078 182.286 332.134 182.388 332.15 182.5V183.43C332.15 183.553 332.102 183.671 332.016 183.759C331.93 183.847 331.813 183.897 331.69 183.9V183.9Z" fill="#F5F5F5"/>
<path d="M331.69 213.59C331.565 213.59 331.446 213.54 331.358 213.452C331.269 213.364 331.22 213.245 331.22 213.12V211.27C331.21 211.203 331.215 211.135 331.234 211.07C331.253 211.005 331.285 210.945 331.329 210.894C331.373 210.843 331.428 210.802 331.489 210.774C331.551 210.746 331.617 210.732 331.685 210.732C331.752 210.732 331.819 210.746 331.881 210.774C331.942 210.802 331.997 210.843 332.041 210.894C332.085 210.945 332.117 211.005 332.136 211.07C332.155 211.135 332.16 211.203 332.15 211.27V213.12C332.15 213.243 332.102 213.361 332.016 213.449C331.93 213.537 331.813 213.587 331.69 213.59V213.59ZM331.69 209.88C331.565 209.88 331.446 209.83 331.358 209.742C331.269 209.654 331.22 209.535 331.22 209.41V207.56C331.21 207.493 331.215 207.425 331.234 207.36C331.253 207.295 331.285 207.235 331.329 207.184C331.373 207.133 331.428 207.092 331.489 207.064C331.551 207.036 331.617 207.022 331.685 207.022C331.752 207.022 331.819 207.036 331.881 207.064C331.942 207.092 331.997 207.133 332.041 207.184C332.085 207.235 332.117 207.295 332.136 207.36C332.155 207.425 332.16 207.493 332.15 207.56V209.41C332.15 209.533 332.102 209.651 332.016 209.739C331.93 209.827 331.813 209.877 331.69 209.88V209.88ZM331.69 206.17C331.565 206.17 331.446 206.12 331.358 206.032C331.269 205.944 331.22 205.825 331.22 205.7V203.85C331.21 203.783 331.215 203.715 331.234 203.65C331.253 203.585 331.285 203.525 331.329 203.474C331.373 203.423 331.428 203.382 331.489 203.354C331.551 203.326 331.617 203.312 331.685 203.312C331.752 203.312 331.819 203.326 331.881 203.354C331.942 203.382 331.997 203.423 332.041 203.474C332.085 203.525 332.117 203.585 332.136 203.65C332.155 203.715 332.16 203.783 332.15 203.85V205.7C332.15 205.823 332.102 205.941 332.016 206.029C331.93 206.117 331.813 206.167 331.69 206.17V206.17ZM331.69 202.46C331.565 202.46 331.446 202.41 331.358 202.322C331.269 202.234 331.22 202.115 331.22 201.99V200.13C331.236 200.018 331.292 199.916 331.378 199.843C331.463 199.769 331.572 199.728 331.685 199.728C331.798 199.728 331.907 199.769 331.992 199.843C332.078 199.916 332.134 200.018 332.15 200.13V202C332.147 202.121 332.098 202.237 332.012 202.322C331.927 202.408 331.811 202.457 331.69 202.46V202.46ZM331.69 198.74C331.629 198.741 331.568 198.73 331.511 198.708C331.454 198.685 331.402 198.652 331.358 198.609C331.314 198.566 331.28 198.515 331.256 198.458C331.232 198.402 331.22 198.341 331.22 198.28V196.42C331.236 196.308 331.292 196.206 331.378 196.133C331.463 196.059 331.572 196.018 331.685 196.018C331.798 196.018 331.907 196.059 331.992 196.133C332.078 196.206 332.134 196.308 332.15 196.42V198.28C332.15 198.402 332.101 198.519 332.015 198.605C331.929 198.692 331.812 198.74 331.69 198.74V198.74ZM331.69 195.03C331.567 195.03 331.449 194.982 331.361 194.896C331.273 194.81 331.223 194.693 331.22 194.57V192.71C331.236 192.598 331.292 192.496 331.378 192.423C331.463 192.349 331.572 192.308 331.685 192.308C331.798 192.308 331.907 192.349 331.992 192.423C332.078 192.496 332.134 192.598 332.15 192.71V194.57C332.14 194.686 332.088 194.794 332.003 194.873C331.918 194.953 331.806 194.998 331.69 195V195.03ZM331.69 191.32C331.567 191.32 331.449 191.272 331.361 191.186C331.273 191.1 331.223 190.983 331.22 190.86V189C331.236 188.888 331.292 188.786 331.378 188.713C331.463 188.639 331.572 188.598 331.685 188.598C331.798 188.598 331.907 188.639 331.992 188.713C332.078 188.786 332.134 188.888 332.15 189V190.86C332.147 190.981 332.098 191.097 332.012 191.182C331.927 191.268 331.811 191.317 331.69 191.32V191.32ZM331.69 187.61C331.567 187.61 331.449 187.562 331.361 187.476C331.273 187.39 331.223 187.273 331.22 187.15V185.29C331.236 185.178 331.292 185.076 331.378 185.003C331.463 184.929 331.572 184.888 331.685 184.888C331.798 184.888 331.907 184.929 331.992 185.003C332.078 185.076 332.134 185.178 332.15 185.29V187.15C332.147 187.271 332.098 187.387 332.012 187.472C331.927 187.558 331.811 187.607 331.69 187.61V187.61Z" fill="#F5F5F5"/>
<path d="M331.69 216.37C331.629 216.371 331.568 216.36 331.511 216.338C331.454 216.315 331.402 216.282 331.358 216.239C331.314 216.196 331.28 216.145 331.256 216.088C331.232 216.032 331.22 215.971 331.22 215.91V215C331.21 214.933 331.215 214.865 331.234 214.8C331.253 214.736 331.285 214.676 331.329 214.624C331.373 214.573 331.428 214.532 331.489 214.504C331.551 214.476 331.617 214.462 331.685 214.462C331.752 214.462 331.819 214.476 331.881 214.504C331.942 214.532 331.997 214.573 332.041 214.624C332.085 214.676 332.117 214.736 332.136 214.8C332.155 214.865 332.16 214.933 332.15 215V215.93C332.145 216.049 332.094 216.16 332.008 216.242C331.923 216.324 331.809 216.37 331.69 216.37V216.37Z" fill="#F5F5F5"/>
<path d="M303.11 151.25C303.11 150.34 302.47 149.97 301.68 150.43L288.51 158C288.093 158.274 287.746 158.642 287.498 159.074C287.25 159.507 287.106 159.992 287.08 160.49V171.15C287.08 172.06 287.72 172.43 288.51 171.97L293.4 169.15L295.45 172.71C295.48 172.761 295.525 172.802 295.578 172.828C295.631 172.855 295.69 172.866 295.749 172.859C295.808 172.853 295.864 172.83 295.91 172.793C295.956 172.756 295.991 172.706 296.01 172.65L298.18 166.39L301.68 164.39C302.098 164.12 302.445 163.754 302.694 163.322C302.943 162.891 303.085 162.407 303.11 161.91V151.25Z" fill="#F5F5F5"/>
<path d="M291.65 162.42C291.518 162.43 291.386 162.411 291.263 162.362C291.14 162.314 291.029 162.238 290.94 162.14C290.748 161.892 290.656 161.582 290.68 161.27C290.681 160.863 290.769 160.46 290.94 160.09C291.115 159.684 291.355 159.309 291.65 158.98C291.934 158.646 292.272 158.362 292.65 158.14C292.951 157.952 293.296 157.846 293.65 157.83C293.782 157.822 293.915 157.844 294.038 157.895C294.161 157.945 294.271 158.022 294.36 158.12C294.555 158.366 294.652 158.677 294.63 158.99C294.623 159.395 294.531 159.793 294.36 160.16C294.179 160.566 293.94 160.943 293.65 161.28C293.363 161.606 293.026 161.883 292.65 162.1C292.351 162.294 292.006 162.404 291.65 162.42ZM291.33 167.81C291.333 167.747 291.35 167.685 291.38 167.63L297.1 156L297.25 155.74C297.312 155.674 297.383 155.617 297.46 155.57L298.63 154.9C298.652 154.891 298.676 154.886 298.7 154.886C298.724 154.886 298.748 154.891 298.77 154.9C298.789 154.905 298.806 154.917 298.818 154.933C298.829 154.95 298.833 154.97 298.83 154.99C298.829 155.058 298.808 155.124 298.77 155.18L293 166.82C293 166.92 292.9 166.99 292.87 167.04C292.816 167.098 292.752 167.146 292.68 167.18L291.5 167.87C291.4 168 291.33 167.93 291.33 167.81V167.81ZM293.33 160.43C293.509 160.171 293.61 159.865 293.62 159.55C293.637 159.437 293.618 159.321 293.566 159.219C293.514 159.116 293.432 159.033 293.33 158.98C293.208 158.944 293.08 158.937 292.955 158.959C292.829 158.982 292.711 159.033 292.61 159.11C292.317 159.281 292.07 159.522 291.89 159.81C291.709 160.076 291.609 160.388 291.6 160.71C291.584 160.821 291.604 160.933 291.656 161.032C291.708 161.131 291.79 161.211 291.89 161.26C292.011 161.296 292.139 161.304 292.264 161.283C292.389 161.263 292.507 161.214 292.61 161.14C292.918 160.97 293.18 160.726 293.37 160.43H293.33ZM296.51 164.91C296.376 164.92 296.241 164.899 296.116 164.849C295.991 164.798 295.88 164.72 295.79 164.62C295.594 164.378 295.498 164.071 295.52 163.76C295.527 163.359 295.619 162.963 295.79 162.6C295.97 162.191 296.213 161.814 296.51 161.48C296.794 161.149 297.132 160.868 297.51 160.65C297.809 160.456 298.154 160.346 298.51 160.33C298.643 160.323 298.776 160.344 298.9 160.393C299.024 160.441 299.137 160.515 299.23 160.61C299.427 160.855 299.524 161.166 299.5 161.48C299.494 161.885 299.402 162.284 299.23 162.65C299.045 163.056 298.803 163.433 298.51 163.77C298.224 164.099 297.886 164.379 297.51 164.6C297.22 164.78 296.891 164.887 296.55 164.91H296.51ZM298.22 162.91C298.404 162.649 298.505 162.339 298.51 162.02C298.51 161.73 298.42 161.55 298.22 161.47C298.098 161.433 297.969 161.425 297.844 161.448C297.719 161.471 297.601 161.523 297.5 161.6C297.204 161.768 296.957 162.009 296.78 162.3C296.602 162.56 296.502 162.865 296.49 163.18C296.49 163.48 296.59 163.67 296.78 163.74C296.902 163.772 297.03 163.777 297.154 163.754C297.279 163.732 297.397 163.683 297.5 163.61C297.804 163.447 298.064 163.214 298.26 162.93L298.22 162.91Z" fill="#5FB0E5"/>
<path opacity="0.4" d="M291.65 162.42C291.518 162.43 291.386 162.411 291.263 162.362C291.14 162.314 291.029 162.238 290.94 162.14C290.748 161.892 290.656 161.582 290.68 161.27C290.681 160.863 290.769 160.46 290.94 160.09C291.115 159.684 291.355 159.309 291.65 158.98C291.934 158.646 292.272 158.362 292.65 158.14C292.951 157.952 293.296 157.846 293.65 157.83C293.782 157.822 293.915 157.844 294.038 157.895C294.161 157.945 294.271 158.022 294.36 158.12C294.555 158.366 294.652 158.677 294.63 158.99C294.623 159.395 294.531 159.793 294.36 160.16C294.179 160.566 293.94 160.943 293.65 161.28C293.363 161.606 293.026 161.883 292.65 162.1C292.351 162.294 292.006 162.404 291.65 162.42ZM291.33 167.81C291.333 167.747 291.35 167.685 291.38 167.63L297.1 156L297.25 155.74C297.312 155.674 297.383 155.617 297.46 155.57L298.63 154.9C298.652 154.891 298.676 154.886 298.7 154.886C298.724 154.886 298.748 154.891 298.77 154.9C298.789 154.905 298.806 154.917 298.818 154.933C298.829 154.95 298.833 154.97 298.83 154.99C298.829 155.058 298.808 155.124 298.77 155.18L293 166.82C293 166.92 292.9 166.99 292.87 167.04C292.816 167.098 292.752 167.146 292.68 167.18L291.5 167.87C291.4 168 291.33 167.93 291.33 167.81V167.81ZM293.33 160.43C293.509 160.171 293.61 159.865 293.62 159.55C293.637 159.437 293.618 159.321 293.566 159.219C293.514 159.116 293.432 159.033 293.33 158.98C293.208 158.944 293.08 158.937 292.955 158.959C292.829 158.982 292.711 159.033 292.61 159.11C292.317 159.281 292.07 159.522 291.89 159.81C291.709 160.076 291.609 160.388 291.6 160.71C291.584 160.821 291.604 160.933 291.656 161.032C291.708 161.131 291.79 161.211 291.89 161.26C292.011 161.296 292.139 161.304 292.264 161.283C292.389 161.263 292.507 161.214 292.61 161.14C292.918 160.97 293.18 160.726 293.37 160.43H293.33ZM296.51 164.91C296.376 164.92 296.241 164.899 296.116 164.849C295.991 164.798 295.88 164.72 295.79 164.62C295.594 164.378 295.498 164.071 295.52 163.76C295.527 163.359 295.619 162.963 295.79 162.6C295.97 162.191 296.213 161.814 296.51 161.48C296.794 161.149 297.132 160.868 297.51 160.65C297.809 160.456 298.154 160.346 298.51 160.33C298.643 160.323 298.776 160.344 298.9 160.393C299.024 160.441 299.137 160.515 299.23 160.61C299.427 160.855 299.524 161.166 299.5 161.48C299.494 161.885 299.402 162.284 299.23 162.65C299.045 163.056 298.803 163.433 298.51 163.77C298.224 164.099 297.886 164.379 297.51 164.6C297.22 164.78 296.891 164.887 296.55 164.91H296.51ZM298.22 162.91C298.404 162.649 298.505 162.339 298.51 162.02C298.51 161.73 298.42 161.55 298.22 161.47C298.098 161.433 297.969 161.425 297.844 161.448C297.719 161.471 297.601 161.523 297.5 161.6C297.204 161.768 296.957 162.009 296.78 162.3C296.602 162.56 296.502 162.865 296.49 163.18C296.49 163.48 296.59 163.67 296.78 163.74C296.902 163.772 297.03 163.777 297.154 163.754C297.279 163.732 297.397 163.683 297.5 163.61C297.804 163.447 298.064 163.214 298.26 162.93L298.22 162.91Z" fill="black"/>
<path d="M338.67 153.08C338.67 152.17 338.03 151.8 337.24 152.25L324.07 159.87C323.654 160.143 323.308 160.509 323.06 160.94C322.812 161.371 322.668 161.854 322.64 162.35V173C322.64 173.92 323.28 174.29 324.07 173.83L329 171L331.06 174.56C331.083 174.614 331.122 174.659 331.171 174.691C331.219 174.723 331.277 174.74 331.335 174.74C331.393 174.74 331.451 174.723 331.499 174.691C331.548 174.659 331.587 174.614 331.61 174.56L333.78 168.29L337.29 166.29C337.706 166.017 338.052 165.651 338.3 165.22C338.548 164.789 338.692 164.306 338.72 163.81L338.67 153.08Z" fill="#F5F5F5"/>
<path d="M327.21 164.25C327.076 164.258 326.942 164.237 326.817 164.187C326.693 164.136 326.581 164.059 326.49 163.96C326.301 163.715 326.208 163.409 326.23 163.1C326.236 162.693 326.324 162.292 326.49 161.92C326.669 161.511 326.912 161.133 327.21 160.8C327.496 160.471 327.834 160.191 328.21 159.97C328.51 159.78 328.855 159.673 329.21 159.66C329.344 159.65 329.479 159.671 329.604 159.721C329.728 159.772 329.84 159.85 329.93 159.95C330.128 160.195 330.225 160.506 330.2 160.82C330.193 161.221 330.101 161.617 329.93 161.98C329.75 162.389 329.507 162.767 329.21 163.1C328.926 163.431 328.588 163.712 328.21 163.93C327.911 164.124 327.566 164.234 327.21 164.25ZM326.88 169.64C326.883 169.572 326.903 169.507 326.94 169.45L332.66 157.82C332.699 157.727 332.749 157.64 332.81 157.56C332.865 157.491 332.933 157.433 333.01 157.39L334.19 156.71C334.25 156.71 334.29 156.66 334.33 156.71C334.37 156.76 334.38 156.71 334.38 156.8C334.381 156.867 334.364 156.933 334.33 156.99L328.58 168.68C328.544 168.758 328.501 168.831 328.45 168.9C328.4 168.958 328.338 169.005 328.27 169.04L327.08 169.73C327 169.77 326.88 169.75 326.88 169.64ZM328.88 162.26C329.058 162 329.158 161.695 329.17 161.38C329.187 161.267 329.168 161.151 329.116 161.049C329.064 160.946 328.982 160.863 328.88 160.81C328.758 160.774 328.63 160.767 328.504 160.789C328.379 160.812 328.261 160.863 328.16 160.94C327.87 161.112 327.626 161.352 327.45 161.64C327.265 161.904 327.164 162.218 327.16 162.54C327.143 162.651 327.161 162.764 327.214 162.863C327.266 162.962 327.349 163.042 327.45 163.09C327.57 163.126 327.697 163.133 327.821 163.111C327.944 163.088 328.06 163.037 328.16 162.96C328.47 162.797 328.732 162.556 328.92 162.26H328.88ZM332.06 166.74C331.926 166.748 331.792 166.726 331.668 166.676C331.543 166.625 331.431 166.548 331.34 166.45C331.154 166.203 331.062 165.898 331.08 165.59C331.087 165.186 331.175 164.789 331.34 164.42C331.525 164.014 331.767 163.637 332.06 163.3C332.347 162.974 332.684 162.697 333.06 162.48C333.36 162.289 333.705 162.179 334.06 162.16C334.193 162.151 334.327 162.171 334.451 162.22C334.576 162.268 334.688 162.343 334.78 162.44C334.976 162.682 335.073 162.989 335.05 163.3C335.045 163.708 334.953 164.111 334.78 164.48C334.597 164.884 334.355 165.258 334.06 165.59C333.775 165.92 333.437 166.201 333.06 166.42C332.77 166.603 332.441 166.712 332.1 166.74H332.06ZM333.78 164.74C333.961 164.474 334.061 164.162 334.07 163.84C334.084 163.73 334.064 163.618 334.012 163.519C333.96 163.421 333.879 163.341 333.78 163.29C333.656 163.258 333.525 163.254 333.399 163.278C333.273 163.302 333.154 163.354 333.05 163.43C332.759 163.597 332.515 163.834 332.34 164.12C332.155 164.381 332.05 164.69 332.04 165.01C332.04 165.31 332.14 165.49 332.34 165.57C332.461 165.602 332.587 165.607 332.709 165.584C332.832 165.562 332.948 165.512 333.05 165.44C333.356 165.277 333.62 165.044 333.82 164.76L333.78 164.74Z" fill="#5FB0E5"/>
<path opacity="0.4" d="M327.21 164.25C327.076 164.258 326.942 164.237 326.817 164.187C326.693 164.136 326.581 164.059 326.49 163.96C326.301 163.715 326.208 163.409 326.23 163.1C326.236 162.693 326.324 162.292 326.49 161.92C326.669 161.511 326.912 161.133 327.21 160.8C327.496 160.471 327.834 160.191 328.21 159.97C328.51 159.78 328.855 159.673 329.21 159.66C329.344 159.65 329.479 159.671 329.604 159.721C329.728 159.772 329.84 159.85 329.93 159.95C330.128 160.195 330.225 160.506 330.2 160.82C330.193 161.221 330.101 161.617 329.93 161.98C329.75 162.389 329.507 162.767 329.21 163.1C328.926 163.431 328.588 163.712 328.21 163.93C327.911 164.124 327.566 164.234 327.21 164.25ZM326.88 169.64C326.883 169.572 326.903 169.507 326.94 169.45L332.66 157.82C332.699 157.727 332.749 157.64 332.81 157.56C332.865 157.491 332.933 157.433 333.01 157.39L334.19 156.71C334.25 156.71 334.29 156.66 334.33 156.71C334.37 156.76 334.38 156.71 334.38 156.8C334.381 156.867 334.364 156.933 334.33 156.99L328.58 168.68C328.544 168.758 328.501 168.831 328.45 168.9C328.4 168.958 328.338 169.005 328.27 169.04L327.08 169.73C327 169.77 326.88 169.75 326.88 169.64ZM328.88 162.26C329.058 162 329.158 161.695 329.17 161.38C329.187 161.267 329.168 161.151 329.116 161.049C329.064 160.946 328.982 160.863 328.88 160.81C328.758 160.774 328.63 160.767 328.504 160.789C328.379 160.812 328.261 160.863 328.16 160.94C327.87 161.112 327.626 161.352 327.45 161.64C327.265 161.904 327.164 162.218 327.16 162.54C327.143 162.651 327.161 162.764 327.214 162.863C327.266 162.962 327.349 163.042 327.45 163.09C327.57 163.126 327.697 163.133 327.821 163.111C327.944 163.088 328.06 163.037 328.16 162.96C328.47 162.797 328.732 162.556 328.92 162.26H328.88ZM332.06 166.74C331.926 166.748 331.792 166.726 331.668 166.676C331.543 166.625 331.431 166.548 331.34 166.45C331.154 166.203 331.062 165.898 331.08 165.59C331.087 165.186 331.175 164.789 331.34 164.42C331.525 164.014 331.767 163.637 332.06 163.3C332.347 162.974 332.684 162.697 333.06 162.48C333.36 162.289 333.705 162.179 334.06 162.16C334.193 162.151 334.327 162.171 334.451 162.22C334.576 162.268 334.688 162.343 334.78 162.44C334.976 162.682 335.073 162.989 335.05 163.3C335.045 163.708 334.953 164.111 334.78 164.48C334.597 164.884 334.355 165.258 334.06 165.59C333.775 165.92 333.437 166.201 333.06 166.42C332.77 166.603 332.441 166.712 332.1 166.74H332.06ZM333.78 164.74C333.961 164.474 334.061 164.162 334.07 163.84C334.084 163.73 334.064 163.618 334.012 163.519C333.96 163.421 333.879 163.341 333.78 163.29C333.656 163.258 333.525 163.254 333.399 163.278C333.273 163.302 333.154 163.354 333.05 163.43C332.759 163.597 332.515 163.834 332.34 164.12C332.155 164.381 332.05 164.69 332.04 165.01C332.04 165.31 332.14 165.49 332.34 165.57C332.461 165.602 332.587 165.607 332.709 165.584C332.832 165.562 332.948 165.512 333.05 165.44C333.356 165.277 333.62 165.044 333.82 164.76L333.78 164.74Z" fill="black"/>
<path d="M265.72 138.86C265.72 137.95 265.08 137.58 264.29 138.04L251.12 145.65C250.703 145.924 250.356 146.292 250.108 146.724C249.859 147.157 249.716 147.642 249.69 148.14V158.8C249.69 159.71 250.33 160.08 251.12 159.62L256 156.8L258.06 160.35C258.083 160.404 258.122 160.449 258.171 160.481C258.219 160.513 258.277 160.53 258.335 160.53C258.393 160.53 258.45 160.513 258.499 160.481C258.548 160.449 258.587 160.404 258.61 160.35L260.78 154.09L264.29 152.09C264.708 151.82 265.055 151.454 265.304 151.022C265.553 150.591 265.695 150.107 265.72 149.61V138.86Z" fill="#F5F5F5"/>
<path d="M254.25 150C254.118 150.009 253.986 149.988 253.863 149.94C253.741 149.892 253.63 149.816 253.54 149.72C253.352 149.47 253.26 149.162 253.28 148.85C253.286 148.443 253.374 148.042 253.54 147.67C253.719 147.266 253.958 146.892 254.25 146.56C254.536 146.228 254.874 145.945 255.25 145.72C255.552 145.534 255.896 145.427 256.25 145.41C256.384 145.4 256.519 145.421 256.644 145.471C256.769 145.522 256.88 145.6 256.97 145.7C257.165 145.946 257.262 146.257 257.24 146.57C257.233 146.975 257.141 147.373 256.97 147.74C256.785 148.146 256.543 148.523 256.25 148.86C255.963 149.186 255.626 149.463 255.25 149.68C254.951 149.874 254.606 149.984 254.25 150ZM253.93 155.39C253.931 155.325 253.952 155.263 253.99 155.21L259.71 143.57C259.751 143.479 259.801 143.391 259.86 143.31C259.915 143.241 259.983 143.183 260.06 143.14L261.24 142.47C261.262 142.46 261.286 142.455 261.31 142.455C261.334 142.455 261.358 142.46 261.38 142.47C261.38 142.47 261.43 142.47 261.43 142.56C261.432 142.627 261.415 142.693 261.38 142.75L255.63 154.44C255.594 154.518 255.551 154.591 255.5 154.66C255.452 154.721 255.391 154.769 255.32 154.8L254.13 155.49C254 155.56 253.93 155.54 253.93 155.42V155.39ZM255.93 148.01C256.109 147.751 256.21 147.445 256.22 147.13C256.237 147.017 256.218 146.901 256.166 146.799C256.114 146.696 256.032 146.613 255.93 146.56C255.808 146.524 255.68 146.517 255.554 146.539C255.429 146.562 255.311 146.613 255.21 146.69C254.92 146.862 254.676 147.102 254.5 147.39C254.315 147.654 254.214 147.968 254.21 148.29C254.21 148.58 254.3 148.76 254.5 148.84C254.62 148.876 254.747 148.883 254.871 148.861C254.994 148.838 255.11 148.787 255.21 148.71C255.533 148.549 255.805 148.304 256 148L255.93 148.01ZM259.11 152.49C258.976 152.5 258.841 152.479 258.716 152.429C258.591 152.378 258.48 152.3 258.39 152.2C258.202 151.954 258.11 151.649 258.13 151.34C258.138 150.94 258.227 150.545 258.39 150.18C258.57 149.771 258.813 149.394 259.11 149.06C259.394 148.729 259.732 148.448 260.11 148.23C260.409 148.036 260.754 147.926 261.11 147.91C261.243 147.903 261.376 147.924 261.5 147.973C261.624 148.021 261.737 148.095 261.83 148.19C262.024 148.437 262.116 148.748 262.09 149.06C262.088 149.464 261.999 149.863 261.83 150.23C261.645 150.636 261.403 151.013 261.11 151.35C260.823 151.678 260.485 151.958 260.11 152.18C259.823 152.371 259.493 152.488 259.15 152.52L259.11 152.49ZM260.83 150.49C261.01 150.227 261.11 149.918 261.12 149.6C261.136 149.489 261.116 149.377 261.064 149.278C261.012 149.179 260.93 149.099 260.83 149.05C260.707 149.013 260.576 149.005 260.449 149.028C260.323 149.05 260.203 149.103 260.1 149.18C259.808 149.35 259.564 149.591 259.39 149.88C259.205 150.137 259.101 150.443 259.09 150.76C259.09 151.06 259.19 151.25 259.39 151.32C259.511 151.352 259.637 151.357 259.759 151.334C259.882 151.312 259.998 151.262 260.1 151.19C260.403 151.036 260.667 150.813 260.87 150.54L260.83 150.49Z" fill="#5FB0E5"/>
<path opacity="0.4" d="M254.25 150C254.118 150.009 253.986 149.988 253.863 149.94C253.741 149.892 253.63 149.816 253.54 149.72C253.352 149.47 253.26 149.162 253.28 148.85C253.286 148.443 253.374 148.042 253.54 147.67C253.719 147.266 253.958 146.892 254.25 146.56C254.536 146.228 254.874 145.945 255.25 145.72C255.552 145.534 255.896 145.427 256.25 145.41C256.384 145.4 256.519 145.421 256.644 145.471C256.769 145.522 256.88 145.6 256.97 145.7C257.165 145.946 257.262 146.257 257.24 146.57C257.233 146.975 257.141 147.373 256.97 147.74C256.785 148.146 256.543 148.523 256.25 148.86C255.963 149.186 255.626 149.463 255.25 149.68C254.951 149.874 254.606 149.984 254.25 150ZM253.93 155.39C253.931 155.325 253.952 155.263 253.99 155.21L259.71 143.57C259.751 143.479 259.801 143.391 259.86 143.31C259.915 143.241 259.983 143.183 260.06 143.14L261.24 142.47C261.262 142.46 261.286 142.455 261.31 142.455C261.334 142.455 261.358 142.46 261.38 142.47C261.38 142.47 261.43 142.47 261.43 142.56C261.432 142.627 261.415 142.693 261.38 142.75L255.63 154.44C255.594 154.518 255.551 154.591 255.5 154.66C255.452 154.721 255.391 154.769 255.32 154.8L254.13 155.49C254 155.56 253.93 155.54 253.93 155.42V155.39ZM255.93 148.01C256.109 147.751 256.21 147.445 256.22 147.13C256.237 147.017 256.218 146.901 256.166 146.799C256.114 146.696 256.032 146.613 255.93 146.56C255.808 146.524 255.68 146.517 255.554 146.539C255.429 146.562 255.311 146.613 255.21 146.69C254.92 146.862 254.676 147.102 254.5 147.39C254.315 147.654 254.214 147.968 254.21 148.29C254.21 148.58 254.3 148.76 254.5 148.84C254.62 148.876 254.747 148.883 254.871 148.861C254.994 148.838 255.11 148.787 255.21 148.71C255.533 148.549 255.805 148.304 256 148L255.93 148.01ZM259.11 152.49C258.976 152.5 258.841 152.479 258.716 152.429C258.591 152.378 258.48 152.3 258.39 152.2C258.202 151.954 258.11 151.649 258.13 151.34C258.138 150.94 258.227 150.545 258.39 150.18C258.57 149.771 258.813 149.394 259.11 149.06C259.394 148.729 259.732 148.448 260.11 148.23C260.409 148.036 260.754 147.926 261.11 147.91C261.243 147.903 261.376 147.924 261.5 147.973C261.624 148.021 261.737 148.095 261.83 148.19C262.024 148.437 262.116 148.748 262.09 149.06C262.088 149.464 261.999 149.863 261.83 150.23C261.645 150.636 261.403 151.013 261.11 151.35C260.823 151.678 260.485 151.958 260.11 152.18C259.823 152.371 259.493 152.488 259.15 152.52L259.11 152.49ZM260.83 150.49C261.01 150.227 261.11 149.918 261.12 149.6C261.136 149.489 261.116 149.377 261.064 149.278C261.012 149.179 260.93 149.099 260.83 149.05C260.707 149.013 260.576 149.005 260.449 149.028C260.323 149.05 260.203 149.103 260.1 149.18C259.808 149.35 259.564 149.591 259.39 149.88C259.205 150.137 259.101 150.443 259.09 150.76C259.09 151.06 259.19 151.25 259.39 151.32C259.511 151.352 259.637 151.357 259.759 151.334C259.882 151.312 259.998 151.262 260.1 151.19C260.403 151.036 260.667 150.813 260.87 150.54L260.83 150.49Z" fill="black"/>
<path d="M217.91 195.62C217.91 194.71 217.27 194.34 216.48 194.79L203.31 202.41C202.893 202.684 202.546 203.052 202.298 203.484C202.05 203.917 201.906 204.402 201.88 204.9V215.55C201.88 216.47 202.52 216.84 203.31 216.38L208.2 213.56L210.25 217.11C210.28 217.161 210.323 217.203 210.376 217.23C210.428 217.257 210.487 217.269 210.546 217.264C210.605 217.258 210.661 217.236 210.708 217.2C210.754 217.164 210.79 217.116 210.81 217.06L212.98 210.79L216.48 208.79C216.897 208.518 217.243 208.152 217.492 207.721C217.74 207.29 217.884 206.807 217.91 206.31V195.62Z" fill="#F5F5F5"/>
<path d="M206.45 206.79C206.317 206.801 206.184 206.78 206.06 206.73C205.937 206.679 205.827 206.601 205.74 206.5C205.546 206.257 205.453 205.949 205.48 205.64C205.481 205.233 205.569 204.83 205.74 204.46C205.918 204.052 206.157 203.675 206.45 203.34C206.735 203.01 207.073 202.729 207.45 202.51C207.75 202.32 208.095 202.213 208.45 202.2C208.584 202.19 208.719 202.211 208.844 202.261C208.968 202.312 209.08 202.39 209.17 202.49C209.367 202.735 209.464 203.046 209.44 203.36C209.433 203.761 209.341 204.157 209.17 204.52C208.988 204.93 208.745 205.311 208.45 205.65C208.163 205.976 207.826 206.253 207.45 206.47C207.15 206.661 206.805 206.771 206.45 206.79ZM206.13 212.18C206.134 212.114 206.151 212.049 206.18 211.99L211.9 200.36C211.939 200.267 211.989 200.18 212.05 200.1C212.107 200.033 212.175 199.976 212.25 199.93L213.43 199.25C213.475 199.234 213.525 199.234 213.57 199.25C213.589 199.255 213.606 199.267 213.617 199.283C213.629 199.3 213.633 199.32 213.63 199.34C213.627 199.408 213.606 199.473 213.57 199.53L207.83 211.22C207.78 211.32 207.73 211.39 207.7 211.44C207.643 211.495 207.58 211.543 207.51 211.58L206.32 212.27C206.19 212.31 206.13 212.3 206.13 212.18V212.18ZM208.13 204.8C208.305 204.539 208.402 204.234 208.41 203.92C208.41 203.62 208.32 203.43 208.13 203.35C208.008 203.314 207.879 203.307 207.754 203.329C207.629 203.352 207.511 203.403 207.41 203.48C207.114 203.648 206.866 203.889 206.69 204.18C206.509 204.446 206.408 204.758 206.4 205.08C206.384 205.191 206.404 205.303 206.456 205.402C206.508 205.501 206.59 205.581 206.69 205.63C206.812 205.666 206.94 205.674 207.065 205.651C207.191 205.628 207.309 205.577 207.41 205.5C207.718 205.334 207.979 205.093 208.17 204.8H208.13ZM211.31 209.28C211.176 209.288 211.042 209.266 210.917 209.216C210.793 209.166 210.681 209.088 210.59 208.99C210.396 208.747 210.3 208.44 210.32 208.13C210.327 207.729 210.419 207.333 210.59 206.97C210.772 206.56 211.015 206.179 211.31 205.84C211.598 205.516 211.936 205.239 212.31 205.02C212.61 204.829 212.955 204.719 213.31 204.7C213.443 204.691 213.577 204.711 213.701 204.76C213.826 204.808 213.938 204.883 214.03 204.98C214.228 205.225 214.325 205.536 214.3 205.85C214.294 206.255 214.202 206.654 214.03 207.02C213.847 207.424 213.604 207.798 213.31 208.13C213.028 208.463 212.689 208.744 212.31 208.96C212.023 209.147 211.692 209.257 211.35 209.28H211.31ZM213.02 207.28C213.201 207.014 213.301 206.702 213.31 206.38C213.324 206.27 213.304 206.158 213.252 206.059C213.2 205.961 213.119 205.881 213.02 205.83C212.895 205.798 212.765 205.794 212.639 205.818C212.513 205.842 212.394 205.894 212.29 205.97C212.002 206.141 211.759 206.377 211.58 206.66C211.399 206.922 211.298 207.232 211.29 207.55C211.29 207.85 211.38 208.03 211.58 208.11C211.701 208.142 211.827 208.147 211.949 208.124C212.072 208.102 212.188 208.052 212.29 207.98C212.596 207.817 212.86 207.584 213.06 207.3L213.02 207.28Z" fill="#5FB0E5"/>
<path opacity="0.4" d="M206.45 206.79C206.317 206.801 206.184 206.78 206.06 206.73C205.937 206.679 205.827 206.601 205.74 206.5C205.546 206.257 205.453 205.949 205.48 205.64C205.481 205.233 205.569 204.83 205.74 204.46C205.918 204.052 206.157 203.675 206.45 203.34C206.735 203.01 207.073 202.729 207.45 202.51C207.75 202.32 208.095 202.213 208.45 202.2C208.584 202.19 208.719 202.211 208.844 202.261C208.968 202.312 209.08 202.39 209.17 202.49C209.367 202.735 209.464 203.046 209.44 203.36C209.433 203.761 209.341 204.157 209.17 204.52C208.988 204.93 208.745 205.311 208.45 205.65C208.163 205.976 207.826 206.253 207.45 206.47C207.15 206.661 206.805 206.771 206.45 206.79ZM206.13 212.18C206.134 212.114 206.151 212.049 206.18 211.99L211.9 200.36C211.939 200.267 211.989 200.18 212.05 200.1C212.107 200.033 212.175 199.976 212.25 199.93L213.43 199.25C213.475 199.234 213.525 199.234 213.57 199.25C213.589 199.255 213.606 199.267 213.617 199.283C213.629 199.3 213.633 199.32 213.63 199.34C213.627 199.408 213.606 199.473 213.57 199.53L207.83 211.22C207.78 211.32 207.73 211.39 207.7 211.44C207.643 211.495 207.58 211.543 207.51 211.58L206.32 212.27C206.19 212.31 206.13 212.3 206.13 212.18V212.18ZM208.13 204.8C208.305 204.539 208.402 204.234 208.41 203.92C208.41 203.62 208.32 203.43 208.13 203.35C208.008 203.314 207.879 203.307 207.754 203.329C207.629 203.352 207.511 203.403 207.41 203.48C207.114 203.648 206.866 203.889 206.69 204.18C206.509 204.446 206.408 204.758 206.4 205.08C206.384 205.191 206.404 205.303 206.456 205.402C206.508 205.501 206.59 205.581 206.69 205.63C206.812 205.666 206.94 205.674 207.065 205.651C207.191 205.628 207.309 205.577 207.41 205.5C207.718 205.334 207.979 205.093 208.17 204.8H208.13ZM211.31 209.28C211.176 209.288 211.042 209.266 210.917 209.216C210.793 209.166 210.681 209.088 210.59 208.99C210.396 208.747 210.3 208.44 210.32 208.13C210.327 207.729 210.419 207.333 210.59 206.97C210.772 206.56 211.015 206.179 211.31 205.84C211.598 205.516 211.936 205.239 212.31 205.02C212.61 204.829 212.955 204.719 213.31 204.7C213.443 204.691 213.577 204.711 213.701 204.76C213.826 204.808 213.938 204.883 214.03 204.98C214.228 205.225 214.325 205.536 214.3 205.85C214.294 206.255 214.202 206.654 214.03 207.02C213.847 207.424 213.604 207.798 213.31 208.13C213.028 208.463 212.689 208.744 212.31 208.96C212.023 209.147 211.692 209.257 211.35 209.28H211.31ZM213.02 207.28C213.201 207.014 213.301 206.702 213.31 206.38C213.324 206.27 213.304 206.158 213.252 206.059C213.2 205.961 213.119 205.881 213.02 205.83C212.895 205.798 212.765 205.794 212.639 205.818C212.513 205.842 212.394 205.894 212.29 205.97C212.002 206.141 211.759 206.377 211.58 206.66C211.399 206.922 211.298 207.232 211.29 207.55C211.29 207.85 211.38 208.03 211.58 208.11C211.701 208.142 211.827 208.147 211.949 208.124C212.072 208.102 212.188 208.052 212.29 207.98C212.596 207.817 212.86 207.584 213.06 207.3L213.02 207.28Z" fill="black"/>
<path d="M206.08 295.18L215.73 289.61C217.14 288.8 218.27 289.15 218.27 290.39C218.166 291.164 217.882 291.902 217.44 292.547C216.999 293.191 216.414 293.723 215.73 294.1L206.09 299.67C204.68 300.48 203.54 300.13 203.54 298.89C203.649 298.118 203.935 297.381 204.375 296.737C204.816 296.094 205.399 295.561 206.08 295.18V295.18Z" fill="#F5F5F5"/>
<path d="M254.07 267.47L263.72 261.9C265.12 261.09 266.26 261.44 266.26 262.68C266.151 263.452 265.865 264.189 265.425 264.833C264.984 265.476 264.401 266.009 263.72 266.39L254.07 272C252.67 272.81 251.53 272.46 251.53 271.22C251.634 270.441 251.918 269.697 252.359 269.046C252.8 268.396 253.385 267.856 254.07 267.47Z" fill="#F5F5F5"/>
<path d="M290.74 246.33L300.39 240.76C301.79 239.95 302.93 240.3 302.93 241.54C302.821 242.312 302.535 243.049 302.095 243.693C301.654 244.336 301.071 244.869 300.39 245.25L290.74 250.82C289.34 251.63 288.2 251.29 288.2 250.05C288.308 249.276 288.594 248.538 289.034 247.892C289.475 247.247 290.059 246.712 290.74 246.33V246.33Z" fill="#F5F5F5"/>
<path d="M326.86 225.45L336.51 219.88C337.92 219.07 339.06 219.41 339.05 220.65C338.947 221.426 338.664 222.166 338.223 222.812C337.781 223.458 337.195 223.992 336.51 224.37L326.87 229.94C325.46 230.75 324.32 230.4 324.32 229.16C324.429 228.388 324.715 227.651 325.155 227.007C325.596 226.364 326.179 225.831 326.86 225.45V225.45Z" fill="#F5F5F5"/>
<path d="M394 170.67C391.53 170.49 388.1 170.48 384.71 176.02C381.32 181.56 372.11 196.8 372.11 196.8L378.11 200.86L388.61 186.11C388.61 186.11 389.61 174.32 391.55 172.67C393.49 171.02 394 170.67 394 170.67Z" fill="#F28F8F"/>
<path d="M402.32 282.219L396.688 284.042L399.34 292.234L404.972 290.41L402.32 282.219Z" fill="#FFA8A7"/>
<path d="M398.21 288.67C398.245 289.342 398.074 290.008 397.72 290.58C396.824 292.071 395.768 293.459 394.57 294.72C392.88 296.53 390.35 298.72 388.57 300.25C387.57 301.13 387.52 302.46 388.96 302.92C391.64 303.579 394.471 303.185 396.87 301.82C398.67 300.82 401.23 296.4 402.72 295.72C404.44 294.95 405.41 294.56 405.99 293.72C406.429 293.269 406.703 292.682 406.766 292.056C406.83 291.43 406.68 290.8 406.34 290.27C405.53 288.76 404.34 286.44 403.81 286.7L403.96 287.17C403.57 288.4 400.22 289.83 398.5 289.49L398.21 288.67Z" fill="#263238"/>
<path d="M403.94 287.22C402.35 286.73 401.87 287.57 400.15 287.22L398.21 288.67C398.25 289.342 398.079 290.01 397.72 290.58C396.824 292.07 395.768 293.459 394.57 294.72C393.74 295.6 392.72 296.56 391.69 297.5C390.86 298.8 393.63 299.18 395.16 298.74C396.839 298.139 398.287 297.027 399.3 295.56C400.41 294.1 403.43 290.71 403.88 289.56C404.204 288.818 404.226 287.978 403.94 287.22V287.22Z" fill="#FFA8A7"/>
<path d="M422.86 204.4C422.04 198.4 420.2 191.4 417.78 180.63C416.91 176.74 415.78 173.23 413 172.15C413 172.15 405.37 175.29 405.37 180.93C405.37 186.57 411.54 189.46 411.54 189.46L415.06 201.6L420.64 208.37C421.447 208.117 422.127 207.565 422.54 206.827C422.953 206.088 423.067 205.22 422.86 204.4V204.4Z" fill="#FFA8A7"/>
<path d="M410.94 295.58H405.19V303.95H410.94V295.58Z" fill="#FFA8A7"/>
<path d="M415.27 210.26C417.55 220.02 415.33 233.19 414.55 241.4C413.79 249.4 412.85 258.75 412.85 258.75C412.85 258.75 415.3 267.2 415.18 273.75C415.06 280.67 411.01 297.33 411.01 297.33C410.13 297.896 409.106 298.197 408.06 298.197C407.014 298.197 405.99 297.896 405.11 297.33C405.11 297.33 404.11 283.33 403.11 275.41C402.11 267.11 401.79 261.07 400.94 256.22C399.87 250.22 398.08 224.64 398.08 224.64L395 250C396.847 253.038 398.286 256.306 399.28 259.72C400.54 264.63 403.28 284.12 403.28 284.12C401.566 285.656 399.361 286.532 397.06 286.59C397.06 286.59 384.74 257.32 383.06 254.4C381.26 251.29 380.99 217.23 383.86 208.7L415.27 210.26Z" fill="#455A64"/>
<path d="M404.74 170.8C404.74 170.8 412.02 171.71 413 172.15C405.37 177.52 411.54 189.46 411.54 189.46L407.85 199.63L415.26 210.23C413.13 212.69 399.58 221.23 385.04 211.87C385.334 206.932 385.905 202.014 386.75 197.14C384.65 187.14 384.43 183.95 385.04 181.6C386.75 174.99 390.66 170.77 395.15 170.52L404.74 170.8Z" fill="#5FB0E5"/>
<path opacity="0.7" d="M404.74 170.8C404.74 170.8 412.02 171.71 413 172.15C405.37 177.52 411.54 189.46 411.54 189.46L407.85 199.63L415.26 210.23C413.13 212.69 399.58 221.23 385.04 211.87C385.334 206.932 385.905 202.014 386.75 197.14C384.65 187.14 384.43 183.95 385.04 181.6C386.75 174.99 390.66 170.77 395.15 170.52L404.74 170.8Z" fill="white"/>
<path d="M367.86 188.69L392.66 195.23L399.98 226.01L376.4 219.16L367.86 188.69Z" fill="#5FB0E5"/>
<path d="M378.67 209.06C378.44 209.69 377.09 211.43 374.2 211.3L373.84 210.02L378.67 209.06Z" fill="#5FB0E5"/>
<path opacity="0.2" d="M378.67 209.06C378.44 209.69 377.09 211.43 374.2 211.3L373.84 210.02L378.67 209.06Z" fill="black"/>
<path d="M384.22 210C384.32 210.82 386.01 212.34 388.86 213.29C392.11 214.38 397.08 213.8 397.08 213.8L396.64 212.27L384.22 210Z" fill="#5FB0E5"/>
<path opacity="0.2" d="M384.22 210C384.32 210.82 386.01 212.34 388.86 213.29C392.11 214.38 397.08 213.8 397.08 213.8L396.64 212.27L384.22 210Z" fill="black"/>
<path d="M375.12 193.15L374.92 192.21C374.8 191.68 376.26 191.66 378.17 192.15L381.82 193.1C383.73 193.6 385.37 194.42 385.48 194.94L385.69 195.89L375.12 193.15Z" fill="#5FB0E5"/>
<path opacity="0.3" d="M375.12 193.15L374.92 192.21C374.8 191.68 376.26 191.66 378.17 192.15L381.82 193.1C383.73 193.6 385.37 194.42 385.48 194.94L385.69 195.89L375.12 193.15Z" fill="black"/>
<path d="M373.4 189.58C373.33 189.26 373.92 189.17 374.72 189.39L376.17 189.79C376.17 189.79 375.73 187.79 378.95 188.46C379.805 188.58 380.615 188.919 381.3 189.445C381.985 189.971 382.523 190.665 382.86 191.46L384.4 191.9C385.26 192.14 386.03 192.6 386.13 192.9L386.31 193.49L373.54 190.13C373.54 190.13 373.47 189.91 373.4 189.58Z" fill="#455A64"/>
<path d="M375.16 190.6C376.33 190.89 376.82 191.04 376.99 191.85C377.16 192.66 377.27 193.44 377.27 193.44L382.93 194.94C382.93 194.94 382.66 193.77 382.57 193.32C382.48 192.87 382.67 192.59 383.57 192.83L383.65 192.47L374.79 190.21L375.16 190.6Z" fill="#455A64"/>
<path d="M375 193.24C375 193.24 374.91 192.82 374.79 192.24C374.67 191.66 376.13 191.7 378.04 192.24L381.7 193.19C383.61 193.69 385.24 194.51 385.36 195.03L385.56 195.98L375 193.24Z" fill="#455A64"/>
<path d="M420.64 208.37L415.06 201.6C415.06 201.6 402.5 206.87 400.52 207.02C398.54 207.17 397.01 205.23 396.25 203.3C395.49 201.37 393.99 201.61 393.99 201.61C393.99 201.61 394.58 204.06 394.76 204.85C394.94 205.64 390.41 206.27 387.76 205.38C385.11 204.49 381.34 205.78 383.7 209.38C386.06 212.98 390.62 213.38 393.8 213.38C395.138 213.37 396.473 213.28 397.8 213.11C398.8 212.98 399.8 212.87 400.89 212.8C407.38 212.3 417.68 209.29 420.64 208.37Z" fill="#FFA8A7"/>
<path d="M370.38 197.69L371.48 201.62C371.7 202.37 374.58 203.75 376.4 204.25C378.22 204.75 380.22 205.34 379.4 207.89C378.6 210.24 375.6 210.78 374.07 210.71C372.54 210.64 370.46 209.19 369.63 206.83C368.63 203.83 369.15 200.63 368.73 198.83C368.31 197.03 369.47 196.65 370.38 197.69Z" fill="#FFA8A7"/>
<path d="M405.19 301.12V300.29C404.479 303.011 403.061 305.495 401.08 307.49C399.26 309.15 396.79 311.06 396.16 312.9C395.53 314.74 399.08 315.58 401.43 315.35C403.704 315.063 405.799 313.966 407.33 312.26C408.82 310.55 408.79 309.38 409.49 308.44C410.19 307.5 411.79 306.44 412.17 305.35C412.282 304.338 412.169 303.314 411.84 302.35C411.57 301.35 411.28 300.22 410.94 300.35V300.98C410.122 301.632 409.106 301.985 408.06 301.98C407.22 301.93 405.18 301.76 405.19 301.12Z" fill="#263238"/>
<path d="M410.94 300.92C410.52 301.38 410.31 300.25 409.01 300.29C408.17 300.29 406.76 300.93 406.76 300.29H405.19C404.479 303.01 403.061 305.494 401.08 307.49C400.64 307.89 400.17 308.3 399.69 308.72C398.69 309.8 399 310.72 401.27 310.93C403.54 311.14 405.53 309.76 407.27 307.65C408.722 305.539 409.952 303.284 410.94 300.92V300.92Z" fill="#FFA8A7"/>
<path d="M399.76 165.88H398.4C394.926 165.88 391.594 164.5 389.137 162.043C386.68 159.586 385.3 156.254 385.3 152.78V151.45C385.3 148.498 386.473 145.667 388.56 143.58C390.647 141.493 393.478 140.32 396.43 140.32H401.79C404.742 140.32 407.573 141.493 409.66 143.58C411.747 145.667 412.92 148.498 412.92 151.45V152.71C412.92 156.201 411.534 159.55 409.066 162.019C406.598 164.489 403.251 165.877 399.76 165.88V165.88Z" fill="#263238"/>
<path d="M389.84 145.91C388.38 146.77 386.58 150.44 386.76 158.13C386.91 164.65 389.02 166.26 390.08 166.73C391.14 167.2 393.19 166.91 395.18 166.58V170.49C395.18 170.49 392.43 173.69 392.61 175.49C392.79 177.29 396.61 177.71 399.15 175.95C401.01 174.51 402.613 172.765 403.89 170.79L403.84 161.79C403.84 161.79 405.01 162.93 407 161.19C408.64 159.76 409.19 157.34 407.91 156.05C407.58 155.741 407.181 155.515 406.746 155.391C406.311 155.267 405.853 155.248 405.409 155.336C404.966 155.424 404.549 155.616 404.195 155.897C403.84 156.178 403.558 156.539 403.37 156.95C400.759 156.844 398.215 156.088 395.97 154.75C394.327 153.86 392.917 152.596 391.852 151.06C390.787 149.525 390.098 147.761 389.84 145.91V145.91Z" fill="#FFA8A7"/>
<path d="M394 156.5C393.992 156.609 394.005 156.719 394.04 156.822C394.074 156.926 394.128 157.022 394.2 157.105C394.272 157.188 394.359 157.255 394.457 157.304C394.554 157.353 394.661 157.382 394.77 157.39C394.994 157.395 395.211 157.312 395.374 157.159C395.536 157.005 395.632 156.794 395.64 156.57C395.649 156.353 395.572 156.14 395.425 155.98C395.352 155.901 395.264 155.836 395.166 155.791C395.068 155.745 394.963 155.72 394.855 155.715C394.638 155.706 394.425 155.783 394.265 155.93C394.105 156.078 394.009 156.283 394 156.5V156.5Z" fill="#263238"/>
<path d="M393.82 162L391.92 162.61C391.994 162.862 392.165 163.075 392.395 163.203C392.626 163.33 392.897 163.361 393.15 163.29C393.281 163.253 393.403 163.189 393.508 163.103C393.614 163.017 393.7 162.91 393.763 162.789C393.826 162.669 393.863 162.536 393.873 162.401C393.883 162.265 393.865 162.129 393.82 162V162Z" fill="#F28F8F"/>
<path d="M387.32 154L388.98 152.85C388.833 152.631 388.606 152.478 388.348 152.426C388.089 152.373 387.82 152.425 387.6 152.57C387.484 152.643 387.385 152.738 387.308 152.851C387.23 152.963 387.177 153.09 387.151 153.224C387.125 153.358 387.126 153.496 387.155 153.63C387.184 153.763 387.24 153.889 387.32 154V154Z" fill="#263238"/>
<path d="M387.7 155.9C387.698 156.061 387.744 156.219 387.831 156.354C387.918 156.489 388.043 156.595 388.191 156.66C388.338 156.725 388.501 156.744 388.66 156.717C388.818 156.69 388.965 156.616 389.082 156.506C389.199 156.396 389.281 156.253 389.318 156.097C389.355 155.94 389.345 155.776 389.289 155.625C389.234 155.474 389.135 155.343 389.005 155.248C388.875 155.153 388.721 155.098 388.56 155.09C388.45 155.086 388.341 155.104 388.238 155.143C388.135 155.181 388.041 155.24 387.961 155.315C387.881 155.391 387.816 155.481 387.772 155.582C387.727 155.682 387.703 155.79 387.7 155.9V155.9Z" fill="#263238"/>
<path d="M391.57 155.44L391.44 160.37L388.84 159.56L391.57 155.44Z" fill="#F28F8F"/>
<path d="M395.18 166.58C397.28 166.3 401.59 165.06 402.26 163.36C401.992 164.224 401.465 164.985 400.75 165.54C399.46 166.64 395.18 167.88 395.18 167.88V166.58Z" fill="#F28F8F"/>
<path d="M410.03 193.62L404.29 201.4L407.85 199.63L410.03 193.62Z" fill="#5FB0E5"/>
<path opacity="0.3" d="M410.03 193.62L404.29 201.4L407.85 199.63L410.03 193.62Z" fill="white"/>
</svg>
