<svg width="24" height="23" viewBox="0 0 24 23" fill="none" xmlns="http://www.w3.org/2000/svg">
<path d="M18.0895 6.80532C18.0895 3.36503 15.3022 0.577637 11.8619 0.577637C8.42157 0.577637 5.63418 3.36503 5.63418 6.80532C5.63418 8.88456 6.65371 10.7277 8.22068 11.8578C8.21063 11.8628 8.2031 11.8653 8.19808 11.8678C7.07559 12.3424 6.06861 13.0229 5.20226 13.8918C4.34092 14.7516 3.65517 15.7708 3.18329 16.8926C2.71901 17.9912 2.46844 19.1682 2.44501 20.3606C2.44434 20.3874 2.44904 20.414 2.45884 20.439C2.46863 20.4639 2.48332 20.4867 2.50204 20.5059C2.52077 20.5251 2.54314 20.5403 2.56785 20.5507C2.59255 20.5611 2.61909 20.5665 2.6459 20.5665H4.15009C4.25807 20.5665 4.34847 20.4786 4.35098 20.3706C4.4012 18.432 5.17715 16.6164 6.55076 15.2403C7.96956 13.8165 9.85293 13.033 11.8619 13.033C15.3022 13.033 18.0895 10.2456 18.0895 6.80532ZM11.8619 11.1245C9.47626 11.1245 7.54267 9.19092 7.54267 6.80532C7.54267 4.41971 9.47626 2.48612 11.8619 2.48612C14.2475 2.48612 16.1811 4.41971 16.1811 6.80532C16.1811 9.19092 14.2475 11.1245 11.8619 11.1245ZM14.4986 16.6742H21.128C21.2385 16.6742 21.3289 16.5838 21.3289 16.4733V15.067C21.3289 14.9565 21.2385 14.8661 21.128 14.8661H16.6958L17.8811 13.3569C17.9084 13.3217 17.9234 13.2785 17.9238 13.2339C17.9238 13.1234 17.8334 13.033 17.7229 13.033H15.8998C15.7768 13.033 15.6612 13.0907 15.5834 13.1862L13.8633 15.3734C13.7528 15.514 13.6925 15.6898 13.6925 15.8706C13.695 16.3151 14.0541 16.6742 14.4986 16.6742ZM20.5254 18.2813H13.8959C13.7854 18.2813 13.695 18.3717 13.695 18.4822V19.8885C13.695 19.999 13.7854 20.0894 13.8959 20.0894H18.3281L17.1428 21.5986C17.1155 21.6338 17.1005 21.677 17.1001 21.7216C17.1001 21.8321 17.1905 21.9225 17.301 21.9225H19.1241C19.2472 21.9225 19.3627 21.8647 19.4405 21.7693L21.1607 19.5821C21.2712 19.4415 21.3314 19.2657 21.3314 19.0849C21.3289 18.6404 20.9698 18.2813 20.5254 18.2813Z" fill="#F47E02"/>
</svg>
